<?xml version="1.0" encoding="UTF-8"?>
<svg id="_レイヤー_2" data-name="レイヤー 2" xmlns="http://www.w3.org/2000/svg" viewBox="0 0 523.8807539 286.5180331">
  <defs>
    <style>
      .cls-1 {
        fill: #fff;
        stroke-width: 0px;
      }
    </style>
  </defs>
  <g id="_レイヤー_1-2" data-name="レイヤー 1">
    <g>
      <g>
        <path class="cls-1" d="m122.6278089,121.8821409c-2.1225586,2.0585938-4.1064453,4.2587891-5.9516602,6.6005859-12.7055664,15.8164062-24.7744141,31.9741211-36.2080078,48.4726562-11.4360551,16.4990234-21.9306641,33.5283203-31.4858398,51.0898438-2.0517578,3.8896484-4.1030273,7.7797852-6.1538086,11.6689453-1.5039062,2.8769531-3.0068359,5.7524414-4.5102539,8.6279297-1.6513672,3.1323242-3.5078125,6.1591797-5.5688477,9.0839844-.5307617.7890625-1.1210938,1.515625-1.7700195,2.1796875-.6484375.6645508-1.4013672,1.0351562-2.2602539,1.1118164-.8989258.0415039-1.5395508-.2319336-1.9204102-.8208008-.3803711-.5917969-.6445312-1.3095703-.7924805-2.1538086-.4116211-1.8383789-.6020508-3.7739258-.5712891-5.8061523.190918-8.5039062.9277344-17.1376953,2.206543-25.9047852,1.3647461-10.4174805,3.1191406-20.9077148,5.2636719-31.4702148.8183594-3.9414062,1.6582031-7.890625,2.5200195-11.84375.4077148-1.9492188.8139648-3.875,1.2182617-5.7797852.0605469-.2338867.1191406-.4458008.1767578-.637207.2470703-.984375.347168-2.0004883.3012695-3.0449219-.3588867.2182617-.6435547.453125-.8544922.7021484-.2114258.25-.3911133.5029297-.5390625.7583008-.0512695.1015625-.1235352.2075195-.2163086.3168945-11.7802734,17.0898438-21.9023438,34.8105469-30.3671875,53.1640625-.1552734.3457031-.3095703.6918945-.4648438,1.0371094-.7431641,1.3276367-1.2353516,2.7246094-1.4775391,4.1918945-.0561523.71875-.4394531,1.2514648-1.1479492,1.6000977-.3554688.1757812-.6567383.2148438-.9052734.1201172-.2485352-.0927734-.4521484-.2299805-.6069336-.4135742-.3574219-.3530273-.5249023-.7973633-.5048828-1.3295898.0205078-.5341797.0947266-1.0810547.2236328-1.6401367,1.0805664-4.5786133,2.3339844-9.1777344,3.7597656-13.7963867.6318359-2.0917969,1.2426758-4.1777344,1.8310547-6.2587891,4.2260742-14.8569336,9.0073242-29.7158203,14.34375-44.578125,1.7802734-4.7929688,3.6240234-9.5791016,5.5317383-14.359375.6293945-1.5185547,1.2387695-3.0527344,1.8300781-4.6064453.0463867-.0546875.0727539-.128418.0800781-.2182617.3374023-1.0493164.862793-2.0366211,1.5742188-2.9589844.7475586-.8417969,1.4467773-1.0556641,2.0976562-.6420898.6030273.4707031.574707,1.09375-.0825195,1.8691406-.7983398.9443359-1.3452148,1.9355469-1.6376953,2.9755859-.1064453.2470703-.2099609.4916992-.3129883.7363281-4.4589844,11.2578125-8.515625,22.5498047-12.1689453,33.8759766-3.6538086,11.3261719-7.1362305,22.6552734-10.4487305,33.9863281-.0136719.1796875-.027832.359375-.0415039.5380859-.0073242.0908203-.0161133.2021484-.0263672.3369141.4008789-.2294922.7006836-.5117188.8964844-.8457031.1962891-.3330078.3500977-.668457.4624023-1.0039062.1044922-.2460938.2070312-.4682617.3076172-.6689453,7.4462891-14.5830078,15.8833008-28.7226562,25.309082-42.4208984,1.0532227-1.4892578,2.1494141-2.9448242,3.2822266-4.3662109.762207-1.0205078,1.6499023-1.4580078,2.6616211-1.3076172.4169922.1206055.6855469.362793.8066406.7290039.1206055.3676758.1635742.7758789.1289062,1.2241211-.1176758,2.0546875-.4492188,4.1386719-.9980469,6.253418-.1162109.3818359-.2099609.7783203-.284668,1.1928711-2.2949219,10.2910156-4.3505859,20.5566406-6.1704102,30.7998047-1.8208008,10.2421875-3.1875,20.40625-4.1005859,30.4931641-.0449219.5830078-.0888672,1.1445312-.1308594,1.6826172-.5229492,4.5317383-.6738281,8.9511719-.4541016,13.2578125.0644531,1.3486328.3476562,2.6450195.8491211,3.8896484.484375-.2070312.878418-.4785156,1.1831055-.8154297.3022461-.3383789.5771484-.7133789.8227539-1.1259766.097168-.1552734.1938477-.3105469.2929688-.4677734,2.3666992-3.5712891,4.4853516-7.234375,6.3564453-10.9921875,7.918457-15.7109375,16.6040039-31.1435547,26.0595703-46.3027344,7.7358398-12.2744141,15.8779297-24.2949219,24.4291992-36.0625,8.5493164-11.7675781,17.3852539-23.3623047,26.5068359-34.7851562,1.9462891-2.5439453,4.0893555-4.8696289,6.4287109-6.9799805.09375-.1108398.2089844-.2260742.3466797-.3491211.4580078-.418457.9238281-.7636719,1.3920898-1.0317383.4692383-.2680664.8989258-.1850586,1.2915039.2475586.3032227.4990234.3115234.9487305.0244141,1.3486328-.2880859.4003906-.6591797.7880859-1.1147461,1.1621094-.184082.1782227-.3676758.3320312-.5473633.4638672Z"/>
        <path class="cls-1" d="m112.1888441,190.2849729c-.8286133.7744141-1.7114258,1.4291992-2.6479492,1.9648438-4.6547852,2.8051758-9.3842773,4.9233398-14.1865234,6.3554688-1.2211914.3408203-2.1743164,1.0795898-2.8583984,2.2133789-1.8955078,2.9716797-4.1484375,5.6123047-6.7592773,7.9208984-1.6088867,1.4916992-3.355957,2.5556641-5.237793,3.1884766-2.5737305.7133789-4.2192383-.0537109-4.9394531-2.300293-.465332-1.6928711-.4726562-3.519043-.0224609-5.4790039.7949219-3.6279297,2.1376953-7.1914062,4.0307617-10.6899414.0463867-.0551758.0947266-.1333008.1469727-.2348633.2001953-.4003906.4208984-.7734375.6625977-1.1191406.2392578-.34375.53125-.5351562.8754883-.5761719.6928711-.1230469,1.2021484-.3676758,1.5297852-.7348633.3256836-.3657227.5952148-.8154297.8085938-1.3530273.1005859-.1987305.2016602-.4003906.3022461-.6015625.8881836-1.5371094,2.1298828-2.8398438,3.7280273-3.9125977,1.5957031-1.0698242,3.2353516-1.699707,4.9121094-1.8881836,2.6987305-.1264648,4.2841797,1.1396484,4.7607422,3.7988281.2368164,1.8813477-.0019531,3.8544922-.7163086,5.921875-.0625.2353516-.1445312.4755859-.25.7211914-.3051758.6459961-.4863281,1.3295898-.5424805,2.0473633,1.159668-.1054688,2.2949219-.4482422,3.4072266-1.0263672.1728516-.0419922.3271484-.1015625.4614258-.1787109.2641602-.1074219.5292969-.2158203.7929688-.324707,3.6499023-1.4165039,7.1914062-3.3549805,10.6254883-5.8198242.4091797-.3193359.7993164-.546875,1.1728516-.6816406.3725586-.1347656.6743164-.03125.9038086.3095703.222168.4306641.2211914.8603516-.0039062,1.2890625-.2265625.4287109-.5449219.8251953-.956543,1.1899414Zm-29.53125,17.7485352c3.1606445-2.2646484,5.8422852-5.2080078,8.043457-8.8261719-3.7109375-.5507812-6.2915039-2.4770508-7.7402344-5.78125-1.784668,2.1079102-3.0380859,4.2290039-3.7568359,6.3632812-.7211914,2.1367188-1.1435547,4.2753906-1.2680664,6.4199219-.0439453,3.3134766,1.5288086,3.921875,4.7216797,1.8242188Zm9.6538086-12.2563477c.7705078-.5830078,1.2988281-1.3496094,1.5864258-2.3022461.2875977-.9492188.4853516-1.8564453.5957031-2.7197266.0141602-.1796875.0493164-.3637695.1074219-.5546875.1494141-3.5595703-1.199707-4.8613281-4.046875-3.9047852-.9643555.3222656-1.8632812.7836914-2.6982422,1.3823242-.8374023.6000977-1.4667969,1.4360352-1.8911133,2.5078125-.3305664.9609375-.3388672,1.7456055-.0239258,2.3510742.3149414.605957.7314453,1.1538086,1.2490234,1.6445312.0385742.0356445.0786133.0698242.1196289.1030273.034668.0805664.0947266.1308594.1791992.1547852.2026367.1274414.4047852.2758789.6054688.4467773.6430664.5048828,1.315918.8930664,2.0214844,1.1601562.703125.2709961,1.4355469.1811523,2.1958008-.269043Z"/>
        <path class="cls-1" d="m152.5482191,178.0960081c.5600586-.6201172,1.1030273-.7519531,1.6298828-.3964844.2431641.1611328.3637695.3857422.3647461.671875-.0014648.2861328-.1020508.6083984-.2993164.9638672-.4047852.8037109-.9311523,1.5478516-1.5810547,2.2338867-.8393555.9091797-1.6772461,1.8178711-2.515625,2.7250977-4.2905273,4.7001953-8.5795898,9.3969727-12.8681641,14.0957031-1.4501953,1.6303711-3.0493164,3.0097656-4.8012695,4.1386719-2.6352539,1.5234375-4.0654297.9882812-4.2905273-1.5986328-.078125-1.7426758.1694336-3.5424805.7407227-5.3994141,1.0976562-3.7016602,2.3632812-7.355957,3.7954102-10.9638672.4848633-1.3066406.9736328-2.637207,1.4619141-3.9892578.0566406-.1889648.1381836-.4072266.2426758-.6538086.7915039-1.9526367,1.3710938-3.9223633,1.7392578-5.9057617.3666992-1.9824219-.293457-2.2617188-1.9814453-.8388672-1.2192383.8691406-2.362793,1.8525391-3.4291992,2.9472656-8.8730469,9.3359375-16.2402344,19.6049805-22.1015625,30.8076172-.097168.1542969-.1748047.3286133-.2319336.5175781-.0463867.0556641-.0742188.128418-.0810547.2182617-.1621094.4350586-.3632812.8374023-.6064453,1.2041016-.2412109.3671875-.6191406.5703125-1.1342773.6064453-.5576172.0483398-1.0117188-.1606445-1.3588867-.6279297-.3466797-.465332-.4746094-1.0180664-.3828125-1.6572266.2441406-.9399414.5297852-1.8686523.855957-2.784668,3.5825195-10.9555664,7.6083984-21.8666992,12.0791016-32.730957.3208008-.8261719.7045898-1.6459961,1.1513672-2.4594727.2041016-.4462891.4794922-.8105469.8208008-1.0917969.3417969-.28125.71875-.3393555,1.1333008-.1767578.3295898.1416016.5039062.3740234.5205078.7001953.0180664.3261719-.0961914.6953125-.3408203,1.1064453-.1020508.2011719-.2026367.4013672-.3027344.6025391-.0068359.0898438-.034668.1625977-.0810547.2167969-3.1499023,7.5942383-6.003418,15.2011719-8.5576172,22.8251953-.4921875,1.3974609-.9833984,2.7719727-1.4726562,4.1230469-.0068359.0908203-.0170898.2246094-.03125.4042969.0366211.0791016.0478516.2089844.0341797.3876953.6904297-.6518555,1.1904297-1.3232422,1.5-2.015625.1445312-.2119141.2885742-.4228516.434082-.6347656,3.9931641-6.3886719,8.5170898-12.4423828,13.5683594-18.1621094,1.918457-2.184082,3.9716797-4.1806641,6.1601562-5.9897461,1.0073242-.9057617,2.0844727-1.5854492,3.2299805-2.0405273,1.8461697-.7128906,2.9824219-.2402344,3.4091797,1.4174805.1767578,1.0146484.1357422,2.0805664-.121582,3.2006836-.6787109,2.6748047-1.5454102,5.3310547-2.6030273,7.9658203-.059082.1894531-.1157227.3808594-.1728516.5703125-.3237305.8720703-.6479492,1.7431641-.9707031,2.6147461-1.3823242,3.5063477-2.5957031,7.0385742-3.6391602,10.5952148-.0615234.2358398-.1254883.4931641-.1884766.7724609-.2260742.7163086-.3852539,1.3828125-.4750977,1.9980469-.090332.6171875.0478516,1.0361328.4140625,1.2543945.4931641.2329102,1.0024414.1313477,1.5268555-.3051758.5244141-.4345703,1.0209961-.9301758,1.4912109-1.4863281.2319336-.2304688.440918-.4589844.6289062-.6806641,3.9433594-4.0849609,7.7851562-8.234375,11.5253906-12.4467773,1.6333008-1.8061523,3.2670898-3.6352539,4.9052734-5.4868164.184082-.1767578.3466797-.3486328.4873047-.5146484.2387695-.3217773.4951172-.6054688.7700195-.8476562Z"/>
        <path class="cls-1" d="m231.97693,60.0891721c-3.2724609,10.2646484-7.3461914,20.4150391-12.2216797,30.4521484-7.9199219,16.8134766-16.793457,33.3056641-26.6259766,49.4804688-1.2231445,2.015625-2.2578125,4.0727539-3.1030273,6.171875-14.2460938,36.1865234-27.9194336,72.4082031-41.0175781,108.6689453-.5473633,1.5415039-1.1591797,3.0996094-1.8349609,4.6743164-.1591797.3901367-.3867188.7216797-.6860352.9926758-.2978516.2695312-.637207.3857422-1.0185547.3466797-.3764648-.0849609-.5966797-.2744141-.6591797-.5664062-.0625-.293457-.0341797-.652832.0839844-1.078125.2192383-.6264648.4384766-1.2519531.6577148-1.8769531.0068359-.0908203.0351562-.1860352.0854492-.2861328,9.3876953-26.3735352,19.2001953-52.7167969,29.4370117-79.03125,2.402832-6.2216797,4.7832031-12.4375,7.1445312-18.6494141.1040039-.2451172.1850586-.4624023.2421875-.6538086.3491211-.6557617.5585938-1.4125977.6245117-2.2651367-.6938477.6962891-1.2412109,1.4248047-1.6420898,2.1821289-.0976562.1567383-.2182617.340332-.3618164.5507812-6.5976562,10.2368164-13.7822266,20.0874023-21.5566406,29.5522461-2.4458008,2.9287109-5.0478516,5.675293-7.8076172,8.2392578-1.3803711,1.3046875-2.8466797,2.34375-4.4003906,3.1181641-2.6899414,1.1386719-4.0795898.3535156-4.1674805-2.3564453.0185547-1.3261719.2954102-2.6914062.8305664-4.0996094,2.4702148-7.0742188,6.2988281-13.5322266,11.4882812-19.3745117,1.9731445-2.3286133,4.2290039-4.199707,6.7705078-5.6103516,3.2602539-1.8925781,5.7573242-1.6401367,7.4907227.7563477.0791016.0693359.1376953.1425781.1748047.2207031.0727539.1601562.1591797.28125.2587891.3671875s.2348633.1308594.40625.1323242c.5927734-.496582,1.0854492-1.078125,1.4794922-1.7456055.0996094-.2011719.2231445-.4072266.3671875-.6191406,5.2890625-7.671875,10.3710938-15.4462891,15.2504883-23.3271484,1.0317383-1.7475586,1.8969727-3.543457,2.5952148-5.3876953,8.4624023-21.6123047,17.4726562-43.1357422,27.03125-64.5742188,2.534668-5.7250977,5.3847656-11.3720703,8.5473633-16.9423828.9511719-1.8164062,2.105957-3.5068359,3.4663086-5.0703125.3745117-.4438477.7851562-.796875,1.2338867-1.0605469.4458008-.2617188.9233398-.3666992,1.4321289-.3144531,1.0078125.1953125,1.4648438.8984375,1.3706055,2.1113281-.1352539,2.2788086-.590332,4.5703125-1.3662109,6.8720703Zm-64.3696289,114.4121094c.6171875-.8105469.7382812-1.5444336.3632812-2.2026367-.8891602-2.2954102-2.6494141-2.6801758-5.2841797-1.159668-1.878418,1.1171875-3.5678711,2.5410156-5.0668945,4.2705078-4.9042969,5.4648438-8.5483398,11.4824219-10.9370117,18.0507812-.265625.6826172-.4624023,1.3017578-.5932617,1.8632812-.0561523.1889648-.0908203.3515625-.1010742.4863281-.1162109.953125-.0546875,1.5117188.1899414,1.671875.2431641.1611328.6992188.0498047,1.3691406-.3330078,1.2050781-.6894531,2.3188477-1.5556641,3.3364258-2.5952148,3.0947266-3.0410156,6.0107422-6.2602539,8.7485352-9.6586914,2.7382812-3.3945312,5.3969727-6.8598633,7.9750977-10.3935547Zm31.2050781-49.1391602c.1445312-.2114258.2885742-.4223633.4331055-.6352539.293457-.4667969.5629883-.9277344.8120117-1.3852539,7.609375-13.3881836,14.5126953-27.0024414,20.7070312-40.8398438,3.4008789-7.5209961,6.293457-15.0942383,8.6772461-22.7216797.0571289-.1879883.1166992-.4018555.1772461-.637207.387207-1.1518555.6347656-2.3999023.7397461-3.7475586-.4995117.3857422-.8930664.7900391-1.1816406,1.2128906-.2900391.4223633-.5356445.8354492-.7363281,1.2358398-.0981445.1552734-.1958008.3115234-.2919922.4672852-1.9233398,3.331543-3.7001953,6.7124023-5.3320312,10.1489258-5.7753906,12.28125-11.1928711,24.6318359-16.2539062,37.0478516-1.8867188,4.512207-3.7519531,9.0166016-5.59375,13.5161133-.8427734,2.0537109-1.6855469,4.1088867-2.5268555,6.1635742.0429688-.0107422.0844727.0024414.1259766.0341797.0786133.0703125.1606445.1162109.2441406.1401367Z"/>
        <path class="cls-1" d="m222.5965589,162.5862425c-.3745117.9726562-.9492188,1.7949219-1.7265625,2.46875-5.777832,5.7207031-11.9316406,10.8066406-18.4614258,15.2558594-2.9248047,1.9443359-5.9262695,3.2470703-9.0053711,3.90625-1.6953125.4125977-3.253418.4174805-4.6713867.0126953-3.5126953-1.4355469-4.4956055-4.434082-2.9467773-8.9946289,1.1455078-2.6572266,2.9746094-5.0610352,5.4863281-7.2133789,2.5126953-2.1513672,5.0473633-3.4736328,7.6035156-3.9619141.3867188-.0498047.7949219-.0839844,1.2226562-.0996094,1.7099609-.0625,2.7407227.6777344,3.090332,2.2226562.1743164,1.5869141-.4301758,3.0541992-1.8144531,4.4033203-3.2128906,3.46875-6.7495117,5.3408203-10.6088867,5.6191406-.512207-.0087891-1.0214844-.0380859-1.5297852-.0917969-.2539062-.0253906-.5498047-.0410156-.8920898-.046875-.9355699,3.265625-.0537109,5.0996094,2.6435547,5.5019531,1.4389648.1347656,2.9726562-.1054688,4.5986328-.722168,3.6430664-1.3256836,7.081543-3.3071289,10.3164062-5.9433594,4.9433594-3.800293,9.6606445-7.9633789,14.1499023-12.4902344.2783203-.2875977.5786133-.5805664.9008789-.8789062.4082031-.3188477.8212891-.4189453,1.2392578-.3012695.4453125.2880859.581543.7402344.4052734,1.3535156Zm-30.3554688,7.7758789c-.1367188.1225586-.2963867.2485352-.4770508.3803711-.4082031.3198242-.7885742.6777344-1.1391602,1.0703125-.3496094.3935547-.4765625.7993164-.3818359,1.2158203.0996094.371582.3613281.5615234.7875977.5683594.4257812.0058594.8999023-.0537109,1.4213867-.1806641.1738281-.0419922.3691406-.0898438.5869141-.1425781,2.3115234-.6503906,4.4833984-1.9921875,6.5200195-4.0292969.2304688-.2324219.4433594-.5043945.6381836-.8164062.1948242-.3105469.2631836-.6347656.2041016-.9736328-.1064453-.2822266-.2958984-.4560547-.5664062-.5234375-.2729492-.0664062-.5615234-.0610352-.8652344.0126953-2.4135742.3212891-4.65625,1.4624023-6.7285156,3.418457Z"/>
        <path class="cls-1" d="m250.0633558,154.1267698c.3261719.1850586.4863281.4428711.484375.7744141-.0058594.3305664-.109375.6977539-.3115234,1.0991211-.2949219.5117188-.6328125,1.0126953-1.0107422,1.5014648-5.2207031,6.7749023-10.6757812,13.3188477-16.371582,19.637207-1.4892578,1.5947266-3.0541992,3.0761719-4.6968014,4.4438477-.0439213.0107422-.065894.0380859-.0693119.0830078-.7753906.6293945-1.543457,1.1904297-2.3071289,1.6835938-.8505859.5151367-1.6782227.8706055-2.4819336,1.065918-.8046875.1962891-1.5317383.0864258-2.1816406-.3276367-.6430664-.5048828-.965332-1.1645508-.9663086-1.9785156,0-.8154297.1630859-1.6801758.4912109-2.5981445.5488281-1.5859375,1.265625-3.125,2.1499023-4.6181641.5888672-.9785156,1.1757812-1.9580078,1.7636719-2.9394531.8369141-1.4355469,1.6982422-2.8994141,2.5810547-4.3925781.5917969-1.0244141,1.1230469-2.0996094,1.5952148-3.2285156.5288086-1.3173828.1699219-1.9121094-1.0771484-1.7861328-1.0761719.1298828-2.1425781.4125977-3.2001953.84375-.2216797.0986328-.4624023.1787109-.722168.2416992-.3520508.1308594-.703125.2602539-1.0546875.3896484-.8803711.3452148-1.7548828.6235352-2.6240234.8354492-1.9570312.4755859-2.9428711-.2753906-2.9594727-2.2539062.0454102-1.1103516.3413086-2.1962891.8930664-3.2548828,1.9155273-3.7695312,4.6577148-6.7041016,8.2338867-8.8076172.6293945-.4169922,1.2583008-.6777344,1.8857422-.7885742.6254883-.1069336,1.1782227.0673828,1.6542969.5244141.4331055.4667969.5908203,1.034668.4760742,1.699707-.1162109.6674805-.3291016,1.3466797-.6386719,2.0390625-.559082,1.1494141-1.2202148,2.234375-1.9804688,3.2548828-.0039062.0458984-.0297852.0966797-.0761719.1518555-.144043.2104492-.3095703.4047852-.4926758.581543-.2363281.2788086-.4375.546875-.6069336.8076172-.1699219.2626953-.2885742.5561523-.355957.8798828.4995117.1430664,1.0546875.1396484,1.6630859-.0087891.3486328-.0844727.7138672-.1279297,1.0986328-.1337891,2.6728516.1870117,3.5288086,1.7851562,2.5708008,4.7924805-.5878906,1.5083008-1.3183594,2.9624023-2.1958008,4.3647461-.5410156.9243164-1.105957,1.8779297-1.6938477,2.8564453-.7324219,1.1914062-1.4453125,2.3994141-2.1376953,3.6245117-.6884766,1.1811523-1.2705078,2.355957-1.7451172,3.5297852-.0981445.1552734-.1733398.3066406-.2265625.4501953-.203125.4033203-.3500977.7905273-.4423828,1.1655273-.0932617.3754883-.0219727.6884766.2143555.9384766.362793.2651367.7456055.2924805,1.1450195.0849609.3994141-.206543.8041992-.4697266,1.2133789-.7905273.0893555-.0654297.2021484-.1362305.3364258-.2138672,2.4560547-1.9614258,4.7363281-4.1464844,6.84375-6.5527344,4.956543-5.6074219,9.7363281-11.3935547,14.3378906-17.3574219.0458984-.0556641.1171875-.1386719.2109375-.2509766.3798828-.487793.7558594-.953125,1.1337891-1.3974609.5625-.6655273,1.1132812-.8876953,1.6503906-.6655273Zm-29.9482422,7.4775391c2.909668-1.7631836,5.3056641-4.6137695,7.190918-8.5517578-4.043457,2.0839844-6.4389648,4.934082-7.190918,8.5517578Z"/>
        <path class="cls-1" d="m264.5320809,126.0335081c-.4784907.1162109-.8915766.2163086-1.2392329.3007812-.5644531.1376953-.9707031.28125-1.2167969.4291992s-.46875.4003906-.6669922.7563477c-.1982422.3564453-.4345703.9208984-.7060547,1.6914062-.0615234.2358398-.1699219.5263672-.3251953.8720703-3.21875,8.4892578-6.3994141,17.0136719-9.5371094,25.5712891-14.7192383,40.6171875-28.6098633,81.2763672-41.6704102,121.9750977-.3911133,1.1958008-.7587891,2.3642578-1.1035156,3.5058594-.2294922.7597656-.4604492,1.5200195-.6899414,2.2807617-.1796875.6601562-.3999023,1.3085938-.6630859,1.9453125-.3139648.7363281-.8115234,1.1230469-1.4985352,1.15625-.3833008.0048828-.6303711-.109375-.7402344-.3476562-.1088867-.237793-.1289062-.5205078-.0615234-.8442383.2133789-1.1088867.4936289-2.2338867.8383789-3.375,3.1191406-10.4916992,6.4931641-20.9780273,10.1240234-31.4619141.5581055-1.6782227,1.0908203-3.328125,1.6010742-4.9477539,11.6025391-35.1035156,23.8813477-70.1279297,36.8364258-105.0761719.6972656-1.84375,1.3955078-3.6855469,2.0937253-5.5297852.5957278-1.6411133,1.2148685-3.2905273,1.8545169-4.9438477.0537109-.1455078.109375-.2900391.1630859-.4355469.1035156-.2451172.1972656-.4990234.2832031-.7626953.0849609-.2617188.0927734-.5180664.0273438-.7666016-.2470703-.1152344-.5117188-.1494141-.7910156-.1044922-.2822266.046875-.5751953.1069336-.8789062.1806641-.1328125.0766602-.2880859.1362305-.4609375.1787109-9.6689453,2.5703125-19.3383789,5.140625-29.0073242,7.7109375-.6547852.2036133-1.2929688.4467773-1.9116211.7294922-.2211914.0976562-.4389648.1728516-.6577148.2255859-.3544922.1748047-.6582031.2368164-.9101562.1879883-.2524414-.0478516-.4311523-.2133789-.5371094-.496582-.1508789-.7998047.1542969-1.4472656.918457-1.9414062.6694336-.3818359,1.3530273-.6591797,2.0473633-.828125,9.3325195-2.6201172,18.6625977-5.21875,27.9907227-7.7949219.3037109-.0742188.5878906-.1650391.8515625-.2734375,1.0478516-.296875,2.0693359-.5449219,3.0654297-.7451172,1.3408203-.2368164,2.2822266-1.1044922,2.8261719-2.6030273,1.8535156-4.6333008,3.7929688-9.2885742,5.8203125-13.9663086,3.0712891-7.1318359,6.6621094-14.0830078,10.7714844-20.8525391,3.2431641-5.5,7.1494141-10.4785156,11.71875-14.9370117,2.078125-2.046875,4.3369141-3.6748047,6.7783203-4.8852539,5.3330078-2.2207031,8.6435547-.9121094,9.9316406,3.9287109.5546875,3.2563477.15625,6.7431641-1.1992188,10.4638672-1.6152344,4.3134766-3.6689453,8.5126953-6.1611328,12.5966797-.25.456543-.4970703.8920898-.7421875,1.3027344-.6279297.9462891-1.1748047,1.9375-1.6386719,2.9750977-.3164062.7822266-.8154297,1.1459961-1.4921875,1.090332-.5878906-.1220703-.8320312-.5458984-.7333984-1.2753906.1474609-.7841797.4589844-1.4990234.9355469-2.1435547.0498047-.0996094.0996094-.199707.1513672-.3017578,2.1464844-3.4702148,4.0449219-7.0380859,5.6933594-10.6972656,1.4785156-3.0908203,2.3583984-6.1894531,2.6435547-9.296875.1601562-3.6953125-.7363281-5.8876953-2.6875-6.581543-1.9511719-.6928711-4.5625.2612305-7.8349609,2.862793-3.3759766,2.8017578-6.3769531,6.0214844-9.0048828,9.6533203-4.3076172,6.0244141-7.9970703,12.3164062-11.0654297,18.8759766-3.2539062,6.7363281-6.2353516,13.5390625-8.9453125,20.4082031l-.0703125.0820312c-.1015625.2021484-.171875.4282227-.2119141.6796875-.0429688.2529297-.0322266.5263672.0322266.8188477.7207031.0449219,1.4335938-.0854492,2.140625-.3891602.2617188-.0634766.5-.121582.7177734-.1748047,5.6123047-1.40625,11.2294922-2.8828125,16.8505859-4.4257812,9.4541016-2.5625,18.8964844-4.9448242,28.3232422-7.1494141.0869141-.0209961.1953125-.0478516.3261719-.0791016.6523438-.1591797,1.3203125-.2548828,2.0058594-.2895508.6884766-.0791016.9814453.2680664.8789062,1.0415039-.1367188.6503906-.4902344,1.0888672-1.0615234,1.3149414-.7900391.2807617-1.5761719.5151367-2.3583984.7055664-6.9667969,1.8256836-13.9326172,3.6289062-20.8945312,5.409668-7.2275391,1.8891602-14.4541016,3.7558594-21.6777344,5.6000977-1.3935547.3828125-2.7910156.7885742-4.1885015,1.2158203Z"/>
        <path class="cls-1" d="m302.2440199,141.3098753c.5019531-.4296875.9746094-.4785156,1.4199219-.1464844.3554688.3540039.3828125.8310547.0800781,1.4335938-.390625.6230469-.7988281,1.2080078-1.2236328,1.75-3.9042969,4.6494141-7.9238281,9.1943359-12.0664062,13.6357422-1.4951172,1.6855469-3.1845703,3.109375-5.0664062,4.2709961-3.3837891,1.8364258-5.3779297,1.1318359-5.9775391-2.1147461-.1376953-2.0800781.1591797-4.2441406.8886719-6.4916992.2363281-.8496094.46875-1.6333008.6953125-2.3496094.1103516-.3344727.1972656-.6186523.2587891-.8549805-.6992188.7421875-1.3974609,1.5078125-2.0986328,2.2939453-1.6298828,1.7617188-3.2617188,3.5454102-4.8955078,5.3515625-.09375.1123047-.1875.222168-.28125.3320312-1.734375,2.0078125-3.5253906,3.9189453-5.3720703,5.7324219-1.3886719,1.3955078-2.8886719,2.5966797-4.5039062,3.6049805-3.7929688,2.1557617-5.8164062,1.3046875-6.0712891-2.5527344-.0664062-1.8774414.1894531-3.7895508.7666016-5.7368164,1.1845703-4.2514648,2.7490234-8.4628906,4.6933594-12.6352539.0068359-.0898438.0351562-.1845703.0869141-.2866211.09375-.1083984.1679688-.237793.2207031-.3828125.2119141-.5351562.4833984-.9980469.8125-1.3867188.328125-.387207.7646484-.5166016,1.3085938-.3842773.4580078.1533203.6484375.4375.5742188.8510742-.0751953.4150391-.2363281.8510742-.4863281,1.3081055-.0527344.1445312-.1054688.2680664-.15625.3676758-1.8046875,4.0058594-3.2705078,8.0410156-4.3955078,12.1020508-.53125,1.8901367-.7568359,3.7080078-.6796875,5.4492188.0537109,1.484375.796875,1.8115234,2.2265625.9780273,1.875-1.0717773,3.6035156-2.4619141,5.1865234-4.1679688,3.5771484-3.7753906,6.9785156-7.75,10.2041016-11.9267578.9462891-1.1987305,1.8935547-2.4199219,2.8457031-3.6635742.8046875-1.0322266,1.6103516-2.0874023,2.4208984-3.1650391.0429688-.0102539.0888672-.043457.1347656-.1000977.4775391-.6435547.9912109-1.2084961,1.5410156-1.6953125.6357422-.5063477,1.1708984-.6582031,1.6025391-.4560547.4316406.2036133.5976562.6708984.4990234,1.3984375-.1806641.6616211-.4228516,1.3144531-.7285156,1.9609375-.0546875.1445312-.1103516.3134766-.1669922.5024414-.2099609.4926758-.4199219,1.0063477-.6318359,1.5415039-1.1894531,2.6669922-2.1875,5.3540039-2.9951172,8.0605469-.4013672,1.3320312-.6513672,2.6259766-.7490234,3.8818359-.2373047,3.0537109,1.0292969,3.4941406,3.7988281,1.3227539,1.5058594-1.246582,2.9111328-2.6010742,4.2207031-4.0649414,1.9189453-2.184082,3.8369141-4.3671875,5.7558594-6.5517578,1.4511719-1.6738281,2.9042969-3.3496094,4.3574219-5.0239258.609375-.7192383,1.2597656-1.3842773,1.9462891-1.9916992Z"/>
        <path class="cls-1" d="m334.7020277,115.4954221c.3251953.1855469.4765625.4458008.4511719.7827148-.0263672.3369141-.1416016.7055664-.3427734,1.1069336-.3027344.6015625-.6484375,1.2138672-1.0380859,1.8383789-.9169922,1.3676758-1.8105469,2.7089844-2.6806641,4.0200195-4.9482422,7.6777344-10.0146484,15.2514648-15.203125,22.7216797-2.1113281,3.0239258-4.4277344,5.921875-6.9462891,8.6914062-1.0292969,1.1748047-2.1542969,2.1972656-3.3730469,3.0668945-2.5507812,1.5444336-4.2265625,1.159668-5.0283203-1.1557617-.1416016-.3623047-.2392578-.7578125-.2910156-1.1850586-.0380859-.6079102-.0566406-1.1987305-.0546875-1.7709961.0214844-.2685547.0185547-.5102539-.0087891-.7241211.4072266-4.6796875,1.3271484-9.3725586,2.7597656-14.081543,4.1914062-14.4072266,9.1025391-28.7480469,14.734375-43.0214844,5.2285156-13.4702148,10.7490234-26.8798828,16.5644531-40.2294922.3212891-.8261719.7255859-1.6508789,1.2167969-2.4755859.1943359-.3115234.4267578-.5546875.6972656-.7304688.2695312-.1748047.5703125-.2158203.9042969-.1210938.5800781.2109375.7128906.7089844.3964844,1.4892578-.1074219.2895508-.2373047.5864258-.3886719.8876953-.1054688.2460938-.2089844.4902344-.3144531.7363281-.2548828.546875-.4912109,1.1113281-.7060547,1.6914062-4.5615234,10.9301758-9.0283203,21.8818359-13.4003906,32.8540039-4.3720703,10.9711914-8.4169922,21.9755859-12.1328125,33.0073242-1.5380859,4.4262695-2.9482422,8.8427734-4.2294922,13.25-1.2802734,4.4082031-2.3056641,8.8183594-3.0761719,13.2338867-.2421875,1.4682617-.3320312,2.8979492-.2705078,4.293457.0722656,2.3603516,1.0585938,2.5839844,2.9550781.6689453,1.1972656-1.1279297,2.3134766-2.3242188,3.3496094-3.5888672,2.875-3.5175781,5.5458984-7.1396484,8.0107422-10.8662109,3.2402344-4.9267578,6.4804688-9.8330078,9.71875-14.7158203,1.5478516-2.3588867,3.0947266-4.6933594,4.6386719-7.0068359.0478516-.0556641.0966797-.1337891.1464844-.2353516.3388672-.5205078.7011719-1.0493164,1.0839844-1.5830078.2851562-.3779297.5830078-.6474609.8945312-.8125.3105469-.1630859.6318359-.1757812.9628906-.0361328Z"/>
        <path class="cls-1" d="m391.7235121,120.2180784c.3271484.1855469.4785156.4458008.4521484.7827148s-.1425781.7060547-.3427734,1.1074219c-.3027344.6010742-.6494141,1.2143555-1.0380859,1.8383789-.9179688,1.3686523-1.8105469,2.7084961-2.6806641,4.0205078-4.9472656,7.6767578-10.015625,15.2504883-15.203125,22.7216797-2.1123047,3.0239258-4.4277344,5.9208984-6.9462891,8.6914062-1.0302734,1.1748047-2.1542969,2.1962891-3.3730469,3.065918-2.5507812,1.5454102-4.2265625,1.159668-5.0292969-1.1557617-.140625-.3623047-.2382812-.7568359-.2910156-1.184082-.0371094-.6079102-.0556641-1.1987305-.0537109-1.7709961.0205078-.2695312.0185547-.5112305-.0078125-.7241211.40625-4.6806641,1.3261719-9.3735352,2.7578125-14.0825195,4.1914062-14.4072266,9.1044922-28.7470703,14.734375-43.0214844,5.2285156-13.4692383,10.75-26.8789062,16.5654297-40.2294922.3203125-.8251953.7255859-1.6503906,1.2167969-2.4755859.1933594-.3115234.4267578-.5537109.6962891-.7304688.2695312-.1748047.5703125-.215332.9052734-.1201172.5800781.2109375.7128906.7080078.3955078,1.4892578-.1074219.2895508-.2373047.5854492-.3886719.8867188-.1044922.2470703-.2089844.4912109-.3134766.7363281-.2558594.5478516-.4921875,1.1113281-.7070312,1.6914062-4.5615234,10.9301758-9.0273438,21.8818359-13.4003906,32.8540039-4.3710938,10.972168-8.4169922,21.9755859-12.1318359,33.0078125-1.5390625,4.4267578-2.9482422,8.8432617-4.2304688,13.2504883-1.2792969,4.4072266-2.3056641,8.8183594-3.0761719,13.2338867-.2421875,1.4672852-.3310547,2.8984375-.2695312,4.2924805.0722656,2.3613281,1.0576172,2.5839844,2.9550781.6699219,1.1962891-1.1289062,2.3125-2.3251953,3.3496094-3.5888672,2.875-3.5185547,5.5458984-7.1396484,8.0107422-10.8662109,3.2402344-4.9267578,6.4804688-9.8330078,9.7177734-14.7158203,1.5488281-2.3588867,3.0947266-4.6943359,4.640625-7.0078125.0458984-.0556641.0947266-.1328125.1464844-.234375.3378906-.5214844.6992188-1.0493164,1.0830078-1.5839844.2851562-.3769531.5820312-.6464844.8935547-.8115234.3105469-.1640625.6328125-.1757812.9628906-.0371094Z"/>
        <path class="cls-1" d="m392.6942152,135.7058714c-3.7822266.9194336-5.7314453-.3457031-5.8466797-3.7973633-.0097656-2.0673828.3740234-4.1210938,1.1513672-6.1601562.7773438-2.0385742,1.7138672-4.0712891,2.8085938-6.0996094.1582031-.3901367.40625-.6811523.7412109-.8740234.3339844-.1904297.6904297-.2441406,1.0683594-.159668.3730469.1293945.546875.3515625.5224609.6650391-.0244141.3144531-.1386719.6938477-.34375,1.140625-1.1103516,2.2089844-2.0341797,4.480957-2.7695312,6.8164062-.0107422.1357422-.0410156.253418-.0917969.3530273-.1171875.4248047-.2158203.8691406-.2949219,1.3266602-.6982422,4.0463867.8759766,5.1831055,4.7246094,3.4101562,2.2265625-1.2016602,4.3447266-2.6625977,6.3554688-4.3857422,5.1396484-4.1108398,10.0849609-8.4624023,14.8349609-13.0532227,1.6230469-1.6708984,2.5947266-2.1064453,2.9169922-1.3027344.2548828.5546875.2246094,1.0786133-.0898438,1.5742188-.3173828.4951172-.6806641.9238281-1.0927734,1.2885742l-.0703125.0830078c-6.3837891,6.3979492-13.1875,12.1479492-20.4082031,17.2495117-1.4404297.9672852-2.8115234,1.6083984-4.1162109,1.925293Zm1.5419922-23.1010742c-.6503906.1152344-.9667969-.2036133-.9501953-.9580078.015625-.7519531.2841797-1.4560547.8046875-2.1103516,2.1210938-3.1591797,4.4853516-6.1328125,7.0908203-8.9248047.3701172-.3544922.7578125-.6904297,1.1669922-1.0112305.5429688-.3955078,1.0146484-.4438477,1.4189453-.1469727.3095703.4111328.2919922.8994141-.0507812,1.4658203-.4326172.6342773-.8828125,1.206543-1.3476562,1.715332-2.5566406,2.6928711-4.8300781,5.6015625-6.8212891,8.7270508-.1474609.2563477-.3164062.496582-.5048828.7167969-.1865234.2226562-.4570312.3984375-.8066406.5263672Z"/>
        <path class="cls-1" d="m432.5809339,85.1824339c-.4785156.1162109-.890625.2163086-1.2392578.3012695-.5644531.137207-.9707031.28125-1.2167969.4287109-.2460938.1484375-.46875.4003906-.6669922.7563477-.1972656.3569336-.4345703.9208984-.7060547,1.6914062-.0615234.2358398-.1699219.5268555-.3242188.871582-3.21875,8.4902344-6.4003906,17.0141602-9.5380859,25.5722656-14.7177734,40.6166992-28.6083984,81.2758789-41.6708984,121.9746094-.3896484,1.1962891-.7587891,2.3642578-1.1025391,3.5058594-.2304688.7597656-.4609375,1.5205078-.6904297,2.28125-.1796875.659668-.3994141,1.3081055-.6630859,1.9453125-.3134766.7363281-.8115234,1.1225586-1.4970703,1.15625-.3847656.0039062-.6318359-.1103516-.7412109-.3476562-.109375-.2382812-.1298828-.5205078-.0625-.8447266.2138672-1.1083984.4941406-2.2333984.8388672-3.375,3.1191406-10.4912109,6.4941406-20.9780273,10.1240234-31.4619141.5585938-1.6777344,1.0917969-3.328125,1.6005859-4.9472656,11.6025391-35.1035156,23.8818359-70.1279297,36.8369141-105.0771484.6972656-1.8427734,1.3955078-3.6845703,2.09375-5.5292969.5957031-1.6411133,1.2148438-3.2900391,1.8544922-4.9433594.0537109-.1464844.109375-.2910156.1640625-.4360352.1025391-.2446289.1972656-.4985352.2822266-.762207.0849609-.262207.0927734-.5185547.0283203-.7666016-.2470703-.1152344-.5117188-.1499023-.7919922-.1044922-.2822266.0458984-.5751953.1064453-.8789062.1806641-.1328125.0761719-.2871094.1357422-.4609375.1782227-9.6689453,2.5708008-19.3378906,5.140625-29.0078125,7.7114258-.6542969.203125-1.2910156.4462891-1.9111328.7294922-.2216797.0976562-.4384766.1728516-.6572266.2255859-.3544922.1743164-.6582031.2363281-.9111328.1875-.2519531-.0478516-.4306641-.2128906-.5371094-.496582-.1503906-.800293.15625-1.4472656.9199219-1.9414062.6689453-.3823242,1.3525391-.659668,2.046875-.828125,9.3320312-2.6201172,18.6621094-5.2192383,27.9902344-7.7949219.3037109-.0737305.5878906-.1650391.8525391-.2734375,1.0478516-.2963867,2.0683594-.5449219,3.0644531-.7446289,1.3408203-.2373047,2.2832031-1.1049805,2.8271484-2.6035156,1.8525391-4.6337891,3.7919922-9.2880859,5.8203125-13.9658203,3.0703125-7.1323242,6.6611328-14.0834961,10.7705078-20.8530273,3.2431641-5.5004883,7.1494141-10.4785156,11.7197266-14.9370117,2.0771484-2.046875,4.3359375-3.6748047,6.7773438-4.8847656,5.3330078-2.2211914,8.6445312-.9125977,9.9316406,3.9282227.5546875,3.2563477.15625,6.7431641-1.1982422,10.4643555-1.6152344,4.3129883-3.6699219,8.5126953-6.1621094,12.5966797-.25.4560547-.4970703.8916016-.7402344,1.3027344-.6298828.9462891-1.1757812,1.9375-1.640625,2.9746094-.3164062.7822266-.8154297,1.1459961-1.4921875,1.0898438-.5878906-.1210938-.8320312-.5458984-.7333984-1.2749023.1474609-.7836914.4589844-1.4985352.9355469-2.1435547.0498047-.0991211.1005859-.199707.1513672-.3012695,2.1464844-3.4707031,4.0449219-7.0380859,5.6933594-10.6977539,1.4785156-3.0908203,2.3583984-6.1899414,2.6435547-9.296875.1601562-3.6948242-.7363281-5.8876953-2.6875-6.581543-1.9511719-.6923828-4.5625.2612305-7.8349609,2.8632812-3.375,2.8017578-6.3769531,6.0214844-9.0039062,9.6533203-4.3085938,6.0244141-7.9960938,12.315918-11.0664062,18.8759766-3.2539062,6.7358398-6.2353516,13.5385742-8.9453125,20.4082031l-.0703125.0820312c-.1005859.2021484-.171875.4277344-.2119141.6787109-.0419922.2539062-.03125.5273438.0322266.8193359.7207031.0449219,1.4335938-.0849609,2.1416016-.3896484.2607422-.0634766.4990234-.1210938.7167969-.1738281,5.6123047-1.40625,11.2294922-2.8828125,16.8515625-4.4257812,9.453125-2.5629883,18.8955078-4.9453125,28.3222656-7.1499023.0869141-.0209961.1962891-.0473633.3261719-.0791016.6523438-.1586914,1.3203125-.2548828,2.0058594-.2895508.6884766-.0791016.9814453.2685547.8789062,1.0415039-.1367188.6503906-.4892578,1.0888672-1.0615234,1.3149414-.7900391.28125-1.5761719.515625-2.3583984.7055664-6.9667969,1.8256836-13.9326172,3.6293945-20.8945312,5.409668-7.2275391,1.8891602-14.4541016,3.7558594-21.6767578,5.6000977-1.3945312.3833008-2.7910156.7885742-4.1894531,1.2158203Z"/>
        <path class="cls-1" d="m462.2498793,104.3294065c-.3740234.9726562-.9492188,1.7944336-1.7265625,2.4682617-5.7783203,5.7207031-11.9316406,10.8066406-18.4609375,15.2553711-2.9248047,1.9453125-5.9267578,3.2480469-9.0058594,3.9072266-1.6953125.4121094-3.2529297.4169922-4.671875.0126953-3.5136719-1.4355469-4.4951172-4.4345703-2.9462891-8.9951172,1.1445312-2.6572266,2.9746094-5.0610352,5.4863281-7.2133789,2.5126953-2.1513672,5.0478516-3.4736328,7.6035156-3.9614258.3867188-.050293.7949219-.0839844,1.2226562-.1000977,1.7099609-.0620117,2.7412109.6782227,3.0888672,2.2226562.1748047,1.5874023-.4287109,3.0541992-1.8125,4.4038086-3.2138672,3.46875-6.75,5.3408203-10.6103516,5.6191406-.5107422-.0087891-1.0214844-.0380859-1.5292969-.0917969-.2539062-.0258789-.5488281-.0410156-.8916016-.046875-.9355469,3.265625-.0537109,5.0996094,2.6435547,5.5014648,1.4394531.1352539,2.9726562-.1054688,4.5986328-.722168,3.6435547-1.3251953,7.0810547-3.3066406,10.3154297-5.9433594,4.9443359-3.7998047,9.6611328-7.9628906,14.1513672-12.4902344.2773438-.2880859.5771484-.5800781.8994141-.8789062.4091797-.3183594.8212891-.4189453,1.2392578-.3007812.4462891.2880859.5830078.7392578.40625,1.3535156Zm-30.3554688,7.7753906c-.1367188.1230469-.2958984.2490234-.4765625.3808594-.4082031.3193359-.7890625.6772461-1.1396484,1.0703125-.3496094.3935547-.4765625.7988281-.3818359,1.2158203.0996094.3710938.3603516.5615234.7861328.5683594.4257812.0058594.9013672-.0546875,1.4228516-.1806641.1728516-.0424805.3691406-.0898438.5869141-.1430664,2.3105469-.6499023,4.4833984-1.9926758,6.5185547-4.0288086.2324219-.2324219.4453125-.5048828.6396484-.8164062.1943359-.3105469.2617188-.6347656.2041016-.9746094-.1064453-.28125-.2958984-.4555664-.5664062-.5229492-.2734375-.065918-.5615234-.0610352-.8652344.0131836-2.4150391.3212891-4.65625,1.4619141-6.7285156,3.4179688Z"/>
        <path class="cls-1" d="m475.2323011,112.031555c1.0332031-1.5058594,2.2255859-2.4467773,3.578125-2.8193359,1.2529297-.2167969,2.453125.1191406,3.5996094,1.0078125s1.7119141,1.9726562,1.6982422,3.2543945c-.1591797,1.4912109-.9140625,2.9858398-2.2685547,4.4814453-1.3525391,1.4960938-2.8583984,2.4897461-4.5185547,2.980957-2.7275391.5322266-4.0332031-.78125-3.9160156-3.9360352.1835938-1.8071289.7929688-3.4624023,1.8271484-4.9692383Zm3.3037109,5.6381836c.9833984-.5922852,1.7695312-1.3554688,2.3525391-2.2895508.4375-.6796875.5498047-1.3017578.3378906-1.8662109-.0810547-.0693359-.3095703-.1347656-.6875-.1958008-.3808594-.0629883-.8134766-.1108398-1.3007812-.1469727-.4882812-.0351562-.9355469-.0366211-1.34375-.0039062-.4082031.0341797-.6591797.1054688-.7529297.2158203-.2285156.1884766-.3955078.4267578-.5039062.7172852-.4003906.7583008-.6064453,1.4907227-.6181641,2.1987305-.1074219,1.9194336.7314453,2.3754883,2.5166016,1.3706055Zm8.4462891-27.1567383c.2763672-.8168945.5996094-1.6879883.9707031-2.6152344,2.0224609-5.159668,4.0419922-10.2973633,6.0625-15.4130859,4.2929688-10.7758789,8.5214844-21.5595703,12.6884766-32.3505859,3.3056641-8.5097656,6.5292969-17.0458984,9.6699219-25.6044922,1.4492188-3.8300781,2.8984375-7.6625977,4.3486328-11.4946289.0537109-.1450195.1064453-.2915039.1611328-.4360352.1171875-.425293.2792969-.8378906.4794922-1.2402344.2060547-.4458008.4794922-.7978516.8193359-1.0576172.3388672-.2568359.7197266-.3496094,1.140625-.2773438.3740234.1298828.5595703.3496094.5576172.6582031-.0029297.3085938-.1083984.6870117-.3125,1.1318359-1.0869141,2.9960938-2.1738281,6.0117188-3.2636719,9.0517578-1.4697266,4.1005859-2.9863281,8.2353516-4.5478516,12.4023438-6.8886719,18.3662109-14.0107422,36.7246094-21.3662109,55.0722656-1.1621094,2.8808594-2.3027344,5.7558594-3.421875,8.6259766-.4257812,1.0732422-.828125,2.140625-1.2089844,3.2021484-.2089844.4902344-.3945312.9765625-.5605469,1.4570312-.1650391.4799805-.3789062.8847656-.6386719,1.2109375-.2607422.328125-.6269531.5283203-1.1025391.5986328-.7353516.1357422-1.0009766-.5712891-.7929688-2.1191406.1035156-.2451172.2080078-.5136719.3173828-.8027344Z"/>
      </g>
      <g>
        <g>
          <path class="cls-1" d="m64.555055,71.9124143c.0024414.1557617-.0454102.2783203-.1416016.3720703-.0976562.09375-.2163086.1655273-.3549805.2148438-.2333984.1025391-.4726562.1757812-.7158203.2197266-5.3349609,1.2041016-10.6767578,2.5878906-16.0249023,4.1523438-.3227539.09375-.6533203.1816406-.9902344.2636719-.230957.0703125-.4619141.1503906-.6938477.2373047-.3554688.1181641-.7080078.2197266-1.0605469.3046875-.4882812.1035156-.8051758.4125977-.9506836.9287109-.6982422,1.8300781-1.3955078,3.6513672-2.0913086,5.4638672-.3754883.9599609-.7421875,1.9101562-1.1000977,2.8496094-1.0380859,2.7177734-2.0756836,5.4365234-3.112793,8.1542969-.0205078.0668945-.0488281.1362305-.0839844.2060547-.0546875.1225586-.1025391.2460938-.1420898.3720703s-.0415039.2470703-.0043945.3623047c.2841797.0083008.5800781-.0410156.8891602-.1464844.0917969-.0224609.184082-.0527344.2783203-.0917969,1.4541016-.3686523,2.902832-.7363281,4.3422852-1.1015625,3.4663086-.9199219,6.9208984-1.7915039,10.3637695-2.6132812,1.1762695-.2539062,2.3520508-.5019531,3.527832-.7402344.3203125-.0625.6411133-.1328125.9624023-.2109375.2436523-.0429688.4780273-.0615234.7026367-.0541992.1943359.0141602.2827148.1323242.265625.3530273-.0488281.2304688-.1738281.3842773-.3745117.4638672-.2475586.1074219-.4951172.1826172-.7387695.2265625-4.6269531.9848633-9.2719727,2.0986328-13.934082,3.340332-1.9643555.5244141-3.9248047,1.0327148-5.8862305,1.5249023-.1074219.0258789-.1992188.0478516-.2753906.0668945-.2290039.0405273-.3974609.0839844-.5058594.1342773-.1088867.0498047-.1948242.1289062-.2548828.2353516-.0620117.109375-.1313477.2880859-.2114258.5410156-.0351562.0712891-.0717773.15625-.109375.2587891-1.4008789,3.7060547-2.7329102,7.4111328-3.996582,11.1137695-.7211914,2.1298828-1.4648438,4.2485352-2.2285156,6.3583984-.2895508.8139648-.5864258,1.6225586-.8881836,2.425293-.0766602.2197266-.1772461.4453125-.3007812.6777344-.1201172.199707-.2783203.300293-.4736328.3007812-.1049805-.0058594-.1743164-.0429688-.2050781-.1118164-.0317383-.0708008-.0444336-.1533203-.0375977-.2470703.0283203-.1625977.0708008-.3276367.1289062-.496582.9208984-2.5664062,1.8110352-5.1245117,2.6694336-7.6748047,1.2133789-3.628418,2.4946289-7.2519531,3.8413086-10.8671875.1704102-.4443359.3417969-.9121094.5151367-1.4042969.0947266-.2397461.1889648-.4951172.2851562-.7670898-.4892578.1191406-.9638672.234375-1.4228516.3461914-1.3779297.3349609-2.7177734.6606445-4.0185547.9765625-.2451172.0595703-.4921875.1279297-.7382812.203125-.0620117.0307617-.1240234.0537109-.1845703.0683594-.1386719.0478516-.2553711.0585938-.3505859.0268555s-.1542969-.1142578-.1733398-.2485352c-.0009766-.1708984.046875-.3100586.1455078-.4194336s.2324219-.1928711.4018555-.2490234c.1552734-.0532227.3237305-.1030273.5073242-.1474609.0458984-.0112305.0849609-.027832.1171875-.0512695.4746094-.1152344.9492188-.2382812,1.4248047-.3691406,1.3671875-.378418,2.7319336-.7421875,4.0952148-1.0888672.440918-.0751953.7412109-.3505859.8974609-.8222656,1.5488281-4.0683594,3.1035156-8.1289062,4.6655273-12.184082.621582-1.6245117,1.2441406-3.2485352,1.8657227-4.8745117.0195312-.065918.0322266-.1313477.0375977-.1948242.0009766-.015625.0029297-.0390625.0053711-.0712891-.0532227-.0786133-.1220703-.1166992-.2050781-.1118164-.0834961.0048828-.1635742.0322266-.2431641.0820312-.0458984.0107422-.0917969.0224609-.1376953.0332031-.6469727.2041016-1.2993164.4003906-1.9614258.5927734-2.046875.6376953-4.0878906,1.2036133-6.125,1.6987305-.3671875.0893555-.7329102.1625977-1.0976562.2202148-.1967773.0166016-.3007812-.0898438-.3125-.3198242.03125-.2241211.1494141-.3774414.3500977-.456543.1547852-.0693359.3100586-.1230469.4624023-.1601562,2.1000977-.5400391,4.1982422-1.1513672,6.293457-1.8320312,1-.3037109,2.0004883-.609375,3.0004883-.9155273.1376953-.0336914.2651367-.0834961.3833008-.1508789s.2280273-.1826172.331543-.3476562c.2060547-.3452148.3632812-.5273438.4697266-.5449219.1069336-.0185547.2412109.0922852.4023438.3330078.0678711.0917969.1464844.1376953.2363281.1396484.090332.0009766.1889648-.0112305.2963867-.0371094,2.7543945-.8393555,5.5107422-1.6259766,8.2705078-2.359375.7055664-.1870117,1.4106445-.375,2.1171875-.5615234,2.515625-.6728516,5.027832-1.2988281,7.5356445-1.8779297.3505859-.0693359.6928711-.1225586,1.0258789-.15625.1220703-.0302734.2368164-.0498047.3432617-.0605469.2426758-.0439453.3779297.0566406.4047852.296875Z"/>
          <path class="cls-1" d="m75.8719496,87.7478636c.1762695-.1499023.3422852-.1674805.4990234-.0512695.1254883.1254883.1342773.2929688.0288086.5053711-.1376953.2192383-.28125.4262695-.4311523.6166992-1.3740234,1.6367188-2.7900391,3.2373047-4.2480469,4.8007812-.5283203.59375-1.1220703,1.0957031-1.7851562,1.5039062-1.1914062.6474609-1.8925781.3989258-2.1044922-.7441406-.0483398-.7329102.0561523-1.4951172.3129883-2.2856445.0834961-.2993164.1645508-.5756836.2446289-.8276367.0385742-.1181641.0693359-.2182617.0913086-.3012695-.2456055.2607422-.4916992.5307617-.7382812.8071289-.5742188.6206055-1.1489258,1.2490234-1.7236328,1.8847656-.0336914.0390625-.0664062.0786133-.0991211.1171875-.6118164.7070312-1.2416992,1.3808594-1.8930664,2.0185547-.487793.4902344-1.0166016.9140625-1.5859375,1.269043-1.3349609.7592773-2.0463867.4604492-2.1362305-.8984375-.0244141-.6606445.0664062-1.3344727.269043-2.0200195.4174805-1.4970703.9677734-2.9804688,1.6518555-4.449707.0024414-.03125.0126953-.0639648.0317383-.1000977.0327148-.0390625.0585938-.0844727.0776367-.1357422.0742188-.1879883.1689453-.3510742.2851562-.4873047.1162109-.1367188.269043-.1826172.4609375-.1352539.1616211.0537109.2285156.1533203.2026367.2993164-.0263672.1455078-.0834961.2993164-.1708984.4594727-.019043.0512695-.0366211.0952148-.0551758.1303711-.6357422,1.4106445-1.1523438,2.8310547-1.5478516,4.2617188-.1870117.6660156-.2666016,1.3051758-.2392578,1.918457.0185547.5224609.2807617.6381836.7836914.3442383.6606445-.3769531,1.2695312-.8662109,1.8261719-1.4672852,1.2607422-1.3295898,2.4580078-2.7290039,3.59375-4.2001953.3334961-.4223633.6669922-.8520508,1.0009766-1.2905273.2841797-.3632812.5688477-.734375.8530273-1.1137695.015625-.003418.03125-.0151367.0478516-.0356445.1679688-.2265625.3486328-.4257812.5429688-.5966797.2236328-.1787109.4116211-.2324219.5639648-.1601562.1518555.0712891.2109375.2353516.1752729.4921875-.0629682.2329102-.1479292.4633789-.2558393.690918-.019043.050293-.0390625.1098633-.0595703.1772461-.0727539.1728516-.1474609.3540039-.222168.5415039-.4179688.9389648-.7705078,1.8862305-1.0546875,2.8393555-.1416016.46875-.2290039.9238281-.2631836,1.3662109-.0834961,1.0751953.3623047,1.2314453,1.3378906.465332.5302734-.4384766,1.0253906-.9155273,1.4848633-1.4301758.6762695-.769043,1.3520508-1.5390625,2.027832-2.3076172.5112305-.5888672,1.0229492-1.1787109,1.5336914-1.769043.2148438-.253418.4438477-.4868164.6860352-.7021484Z"/>
          <path class="cls-1" d="m93.3782972,83.6790159c.0620117-.0302734.1166992-.059082.1640625-.0869141.1748047-.1201172.3466797-.2080078.5170898-.265625.1689453-.0551758.2915039.0078125.3671875.1914062.0600586.2021484.0239258.3691406-.1069336.5024414-.1303711.1333008-.2822266.2514648-.4550781.3549805-.0629883.0302734-.1171875.0668945-.1665039.1103516-3.0429688,2.0581055-6.0458984,4.2021484-9.0048828,6.4345703-2.9604492,2.2314453-5.9101562,4.4951172-8.8520508,6.7919922-.8652344.6767578-1.7353516,1.34375-2.612793,2.0078125-.4824219.4121094-.8208008.8979492-1.0136719,1.456543-2.4482422,5.9760742-5.3574219,11.8164062-8.7299805,17.5219727-2.253418,3.8662109-4.8598633,7.53125-7.8178711,10.9960938-1.6035156,1.8930664-3.3779297,3.5576172-5.3212891,4.9921875-1.1977539.9106445-2.4501953,1.5639648-3.7568359,1.9599609-2.1557617.4775391-3.2382812-.3769531-3.2480469-2.5605469.0654297-1.2416992.3813477-2.4892578.9443359-3.7431641.7519531-1.7490234,1.6791992-3.4306641,2.7802734-5.0488281,2.9311523-4.2636719,6.2060547-8.246582,9.8291016-11.9501953,4.4736328-4.6240234,9.1870117-8.925293,14.1376753-12.9042969.5761919-.4501953.9873247-1.0078125,1.2348833-1.671875,1.3242188-3.5166016,2.4169922-7.0473633,3.2783203-10.5908203.0849609-.315918.1772461-.6401367.2788086-.9750977.0605469-.1850586.1425781-.3413086.25-.4672852.1074219-.1279297.2514648-.1894531.4326172-.1875.1640625.0073242.2451172.0727539.2431641.1967773-.0019531.1254883-.0244141.2617188-.0654297.4116211-.0014648.0166016-.0029297.0322266-.0039062.0478516-.1469727.5322266-.2861328,1.0688477-.4189453,1.6137695-.730957,3.0307617-1.6420898,6.0522461-2.7329102,9.0610352-.0170898.0361328-.0268555.0610352-.027832.0776367-.0351562.0698242-.0595703.1459961-.0732422.2270508-.0141602.0810547-.0019531.1708984.0341797.2709961.1123047-.0893555.2246094-.1791992.3374023-.2685547.222168-.1625977.4291992-.3208008.6225586-.4770508,5.1640625-4.03125,10.3813477-7.9667969,15.6518555-11.8066406,1.0839844-.8061523,2.1850586-1.5458984,3.3046875-2.2226562Zm-25.7832031,25.6220703c1.2265625-2.4541016,2.4042969-5.0356445,3.53125-7.7441406-.5063477.3085938-.9194336.6103516-1.2436523.9077148-.0800781.0795898-.1689453.15625-.2646484.2260742-3.0834961,2.5800781-6.0800781,5.2734375-8.9873047,8.0830078-2.9057617,2.8066406-5.6757812,5.7792969-8.3071289,8.9160156-2.3945312,2.784668-4.4814453,5.7568359-6.2587891,8.9199219-.7836914,1.3837891-1.3359375,2.7900391-1.6577342,4.2177734-.2519338,1.3173828-.0986134,2.1943359.4599803,2.6323242.559082.4379883,1.4526367.3920898,2.6801758-.1401367,1.7636719-.8461914,3.3916016-1.9951172,4.8862305-3.4438477,1.980957-1.8930664,3.7856445-3.9594727,5.4165039-6.2011719,1.9145508-2.605957,3.6699219-5.2773438,5.2641602-8.0151367,1.5947266-2.7368164,3.0874023-5.5229492,4.480957-8.3583984Zm8.7280273-26.7792969c-.3330078.0498047-.4658203-.0976562-.3930664-.440918.0805664-.2666016.1899414-.5185547.3291016-.7543945.7646484-1.3330078,1.6005859-2.6298828,2.5112305-3.8896484l.0014648-.0234375c.1875-.2929688.4248047-.5458984.7114258-.7548828.1894531-.1240234.3549805-.1323242.4980469-.0283203.0947266.1171875.0996094.2626953.0102539.4394531-.1210938.2001953-.2485352.3945312-.3828125.5820312-.0336914.0390625-.0678711.0859375-.1020508.1411133-.1523438.222168-.3115234.4477539-.4804688.6743164-.8349609,1.0878906-1.5400391,2.2353516-2.1152344,3.4462891-.1611328.3496094-.3583984.5527344-.5878906.6083984Z"/>
          <path class="cls-1" d="m94.4974379,88.9895628c-1.3320312.3242188-2.0180664-.1210938-2.0585938-1.3369141-.0039062-.7285156.1313477-1.4511719.4052734-2.1679688.2734375-.7177734.6030273-1.4345703.9892578-2.1479492.0546875-.1381836.1420898-.2407227.2597656-.3085938.1181641-.0668945.2431641-.0859375.3759766-.0571289.1323242.046875.1933594.125.1850586.2353516-.0087891.1103516-.0488281.2441406-.121582.4008789-.3911133.7783203-.7158203,1.5786133-.9750977,2.4008789-.0039062.0478516-.0146484.0893555-.0327148.1240234-.0415039.1503906-.0756836.3061523-.1035156.4677734-.2456055,1.4238281.3095703,1.8251953,1.6640625,1.2006836.7836914-.4243164,1.5297852-.9379883,2.2382812-1.5444336,1.8095703-1.4472656,3.5507812-2.9804688,5.2236328-4.597168.5708008-.5874023.9135742-.7402344,1.0273438-.4584961.0883789.1958008.0776367.3803711-.0327148.5537109-.1113281.1757812-.2387695.3266602-.3837891.4550781l-.0253906.0292969c-2.2475586,2.2524414-4.6430664,4.2763672-7.1855469,6.0732422-.5078125.3417969-.9907227.5664062-1.449707.6777344Zm.5424805-8.1347656c-.2280273.0410156-.340332-.0712891-.3339844-.3364258.0053711-.2646484.0991211-.5126953.2832031-.7431641.746582-1.1118164,1.5791016-2.159668,2.496582-3.1430664.1303711-.125.2670898-.2431641.4111328-.3554688.190918-.1396484.3569336-.1572266.4995117-.0517578.1083984.144043.1025391.3164062-.0175781.515625-.1533203.2236328-.3105469.4257812-.4750977.6044922-.9003906.9477539-1.7006836,1.9711914-2.4013672,3.0727539-.0532227.090332-.1113281.1743164-.1777344.253418-.0664062.078125-.1611328.1396484-.284668.1835938Z"/>
          <path class="cls-1" d="m113.6976332,78.4837034c.1982422-.0478516.3198242.0224609.3666992.2138672.0429688.2060547-.0234375.3857422-.2001953.5361328-.2548828.1865234-.515625.3505859-.7817383.4931641l-.0014648.0234375c-2.3950195,1.4345703-4.7587891,2.9633789-7.0922852,4.5859375-.5678711.3398438-.8510742.8037109-.8530273,1.3925781-.0185547,1.0126953-.3798828,1.9926758-1.0839844,2.9389648-.5917969.8422852-1.3251953,1.3930664-2.2016602,1.6513672-1.0664062.1977539-1.4887695-.265625-1.2661133-1.3901367.1625977-.5351562.4262695-1.0336914.7929688-1.4941406.6542969-.8886719,1.4052526-1.6601562,2.2524414-2.3164062.4316406-.3378906.5649414-.6962891.3989258-1.0732422-.2792969-.8481445-.6308594-1.6464844-1.0527344-2.3964844-.0131836-.0283203-.0249023-.0634766-.0366211-.1079102-.0673828-.1069336-.1323242-.2236328-.1982422-.3461914-.2495117-.4521484-.4692383-.9257812-.6557617-1.4228516-.6508789-1.6728516-.4902344-3.5405273.480957-5.6064453,1.0595703-2.2124023,2.612793-3.9394531,4.6611328-5.1816406.996582-.6455078,1.9868164-.925293,2.972168-.8388672,1.4169922.3066406,1.871582,1.3212891,1.3623047,3.0419922-.043457.1660156-.1030273.3115234-.1796875.4394531-.078125.1269531-.2070312.1982422-.3891602.2104492-.1342773-.0131836-.2158203-.0708008-.2456055-.1733398-.0292969-.1005859-.0380859-.2231445-.0268555-.3647461.0200195-.0825195.0424805-.1655273.0634766-.2485352.003418-.0478516.0063477-.0859375.0092773-.1181641.2197266-1.2773438-.2587891-1.8828125-1.4360352-1.8144531-.4238281.0410156-.8457031.1679688-1.2680664.3779297-1.6289062.8613281-2.9379883,2.0488281-3.9267578,3.5600586-.9892578,1.512207-1.4853516,2.9750977-1.4897461,4.3862305.0073242.8828125.2084961,1.6708984.6044922,2.3652344.1533203.3354492.324707.6582031.5102539.9692383.487793.8588867.8901367,1.7851562,1.2026367,2.7783203.0454102.190918.1264648.2680664.2416992.2324219.1157227-.0356445.2363281-.1069336.3662109-.2163086.0317383-.0229492.0634766-.046875.0947266-.0703125,1.9853516-1.3818359,3.9956055-2.7001953,6.0302734-3.9550781.4726562-.2851562.9443359-.5625,1.4169922-.8330078.1884766-.1069336.3745117-.1835938.5581055-.2285156Zm-10.8012695,10.2558594c.8154297-.8178711,1.2543945-1.8251953,1.3164062-3.0185547-1.0551758.8300781-1.8833008,1.7299805-2.484375,2.6982422l-.0253906.0283203c-.0859375.1455078-.1533203.2861328-.2021484.421875-.046875.1357422-.0224609.2543945.0737305.3544922.0966797.1162109.2211914.1513672.375.1064453.1538086-.0444336.3022461-.1157227.4448242-.2128906.1738281-.1044922.3408203-.2304688.5019531-.3779297Z"/>
          <path class="cls-1" d="m125.9847425,75.7527464c.1293945.0776367.1894531.1791992.1796875.3051758-.0102539.1269531-.0585938.2700195-.1469727.4311523-.1040039.1806641-.2231445.3569336-.355957.5283203-1.1381836,1.5024414-2.3461914,2.9360352-3.6240234,4.300293-.4257812.4609375-.8920898.8535156-1.3974609,1.1782227-1.0712891.6323242-1.7084961.4384766-1.9160156-.581543-.0693359-.4482422-.0561523-.9169922.0424805-1.40625.0703125-.3271484.1337891-.6611328.190918-1.0004883.0268555-.1450195.0522461-.2915039.0791016-.4370117l-.0234375.0058594c-.0439453-.0048828-.0825195-.0029297-.112793.0039062-.2148438.2539062-.4228516.5141602-.6235352.7792969-.4521484.5898438-.9169922,1.1699219-1.3969727,1.734375-.7993164,1.0019531-1.6938477,1.8867188-2.684082,2.6542969-.9086914.6713867-1.605957.9018555-2.0927734.6948242-.4868164-.2075195-.6538086-.8178711-.5004883-1.8320312.4277344-2.6010742,1.7119141-4.9135742,3.8520508-6.9379883.4868164-.4594727,1.0146484-.7900391,1.5859375-.9912109,1.2368164-.4560547,2.0234375-.1357422,2.3588867.9628906.0239258.0703125.0488281.1420898.0732422.2138672.0263672.0400391.0454102.0830078.0581055.1259766.0932617-.0380859.1640625-.0859375.2143555-.1455078.0488281-.0585938.0991211-.1245117.1499023-.1992188.0493164-.059082.1000977-.1171875.1489258-.1757812.0986328-.1015625.1943359-.1757812.2871094-.2216797.09375-.0458984.1923828-.0581055.2958984-.0361328.2041016.090332.2797852.2578125.2314453.5009766-.0708008.3276367-.15625.6513672-.2558594.9707031-.0566406.152832-.105957.3046875-.1474609.4536133-.3623047.987793-.6113281,1.9633789-.7456055,2.9272461-.0063477.078125-.012207.1572266-.0185547.2363281-.0463867.2133789-.0649414.4038086-.0561523.5722656.0087891.1689453.09375.2871094.2539062.3564453.2055664.0585938.4038086.0219727.5947266-.1083984.1894531-.1318359.3676758-.2880859.5317383-.4667969.0473633-.0429688.0888672-.0839844.121582-.1235352,1.3701172-1.3876953,2.6416016-2.8666992,3.815918-4.4399414.0498047-.0742188.1015625-.1494141.1523438-.2226562.0678711-.109375.144043-.2133789.2265625-.3125.0991211-.1152344.2001953-.2099609.3032227-.2822266.1035156-.0722656.2197266-.0761719.3500977-.0151367Zm-7.7368164,2.7412109c.21875-.3168945.3261719-.621582.3183594-.9145508.0673828-.8691406-.1171875-1.390625-.5541992-1.5634766-.4370117-.1733398-1.0395508.0361328-1.8066406.6259766-.3037109.2436523-.5952148.5078125-.8720703.7929688-1.3364258,1.5498047-2.2416992,3.2431641-2.7148438,5.0795898-.0825195.2841797-.1196289.5644531-.1113281.8413086-.0024414.6206055.2944336.7587891.8925781.4106445.440918-.2768555.8574219-.6030273,1.246582-.9780273,1.3359375-1.3310547,2.5356445-2.7626953,3.6015625-4.2944336Z"/>
          <path class="cls-1" d="m143.1322035,71.375305c.2451172-.0595703.3876953.0292969.4306641.2675781.0102539.2460938-.1020508.4355469-.3374023.5703125-.2998047.1811523-.6044922.3251953-.9130859.4306641-1.2324219.4091797-2.4575195.6992188-3.6713867.8696289-.6567383.1289062-1.2456055.0786133-1.7680664-.1518555-.1435547-.0893555-.2739258-.1025391-.3916016-.0439453-.1176758.0595703-.2426758.175293-.3754883.3476562-1.0131836,1.2382812-2.0249023,2.46875-3.0361328,3.6914062-.3652344.4453125-.7709961.8466797-1.2202148,1.2041016-.9404297.6933594-1.5556641.5957031-1.8461914-.2958984-.1235352-.5424805-.1616211-1.1147461-.1147461-1.7163086.0073242-.0947266.0063477-.1801758-.003418-.2553711.0024414-.0322266.0043945-.0556641.0058594-.0712891.0048828-.0625.003418-.1279297-.0068359-.1953125-.0092773-.0678711-.0429688-.1259766-.0996094-.1738281-.2441406.2456055-.4365234.5014648-.578125.7685547-.0483398.0585938-.0908203.1230469-.1274414.1938477-.4438477.6972656-.8901367,1.3950195-1.3339844,2.0932617-.4287109.6933594-.8671875,1.3886719-1.3115234,2.0849609-.2939453.4912109-.6435547.9482422-1.0522461,1.3720703-.612793.5371094-1.0454102.5112305-1.3007812-.078125-.0727539-.2294922-.0976562-.4804688-.0766602-.7490234.0009766-.015625.0024414-.0322266.0039062-.0478516.0429688-.7539062.1787109-1.5234375.4042969-2.3085938.5708008-2.1230469,1.3637695-4.2158203,2.3808594-6.2773438.0917969-.2236328.2070312-.4462891.3447266-.6655273.1015625-.1494141.2124023-.2641602.3310547-.3481445.1191406-.0830078.2509766-.0878906.3945312-.0146484.2451172.1420898.2641602.3779297.0581055.7070312-.6738281,1.140625-1.215332,2.300293-1.6220703,3.4775391-.4057617,1.1762695-.7543945,2.3579102-1.0415039,3.5439453-.0180664.0517578-.0385742.1025391-.0566406.1538086-.1757812.5229492-.2319336,1.0488281-.1679688,1.5756836.140625-.0649414.2568359-.1552734.3481445-.2695312.0913086-.1162109.1640625-.2265625.2163086-.3334961.0361328-.0688477.0708008-.1323242.1044922-.1875.4438477-.6665039.8706055-1.3354492,1.2832031-2.0102539.4970703-.7880859,1.0019531-1.5683594,1.512207-2.3442383.375-.5722656.7709961-1.1254883,1.1879883-1.6616211.1333008-.1728516.2753906-.3115234.4272461-.4179688.1499023-.1069336.3144531-.1494141.4941406-.1318359.1772461.0351562.2915039.1225586.3393555.2670898.0483398.1420898.0668945.3017578.0532227.4746094-.0087891.3129883-.0263672.6352539-.0522461.9663086-.0307617.3955078-.0620117.7988281-.09375,1.2099609-.0039062.046875-.0009766.0927734.0112305.1367188-.0302734.1933594-.0292969.375.003418.5454102.0307617.1713867.1279297.2753906.2910156.3134766.1484375.0097656.2915039-.0444336.4282227-.1625977.1367188-.1176758.2641602-.2539062.3813477-.4067383.0498047-.059082.0991211-.1162109.1499023-.175293,1.0834961-1.2094727,2.128418-2.4560547,3.128418-3.7382812.2167969-.2861328.4492188-.5664062.6962891-.8447266.4111328-.456543.8037109-.5751953,1.1762695-.3554688.7368164.3798828,1.5732422.4321289,2.5112305.1572266,1.0039062-.1655273,2.0170898-.4433594,3.0390625-.831543.1547852-.0693359.309082-.1210938.4624023-.1586914Z"/>
          <path class="cls-1" d="m155.492555,68.5794065c.1293945.078125.1894531.1796875.1796875.3056641-.0102539.1269531-.0585938.2695312-.1469727.4306641-.1040039.1806641-.2231445.3574219-.355957.5288086-1.1381836,1.5019531-2.3461914,2.9355469-3.6240234,4.300293-.4257812.4609375-.8920898.8530273-1.3974609,1.1777344-1.0712891.6328125-1.7084961.4384766-1.9160156-.5810547-.0693359-.4487305-.0561523-.9169922.0424805-1.40625.0703125-.3276367.1337891-.6611328.190918-1.0009766.0268555-.1450195.0522461-.2910156.0791016-.4365234l-.0234375.0053711c-.0439453-.0043945-.0825195-.0029297-.112793.0043945-.2148438.2539062-.4228516.5136719-.6235352.7792969-.4521484.5898438-.9169922,1.1694336-1.3969727,1.734375-.7993164,1.0019531-1.6938477,1.8867188-2.684082,2.6542969-.9086914.6708984-1.605957.9018555-2.09375.6943359-.4858398-.2070312-.652832-.8173828-.4995117-1.8320312.4277344-2.6005859,1.7119141-4.9130859,3.8520508-6.9375.4868164-.4594727,1.0146484-.7900391,1.5859375-.9912109,1.2368164-.4560547,2.0234375-.1357422,2.3588647.9628906.0239478.0703125.0488501.1416016.0732642.2138672.0263672.0400391.0454102.0825195.0581055.1254883.0932617-.0380859.1640625-.0859375.2143555-.1450195.0488281-.0585938.0991211-.125.1499023-.1992188.0493164-.059082.1000977-.1171875.1489258-.1762695.0986328-.1015625.1943359-.175293.2871094-.2211914.09375-.0458984.1923828-.0585938.2958984-.0366211.2041016.090332.2797852.2578125.2314453.5014648-.0708008.3276367-.15625.6513672-.2558594.9707031-.0566406.1523438-.105957.3046875-.1474609.453125-.3623047.9882812-.6113281,1.9638672-.7456055,2.9277344-.0063477.078125-.012207.1572266-.0185547.2363281-.0463867.2133789-.0649414.4033203-.0561523.5722656s.09375.2871094.2539062.3564453c.2055664.0585938.4038086.0214844.5947266-.1088867.1894531-.1313477.3676758-.2875977.5317383-.4663086.0473633-.043457.0888672-.0839844.121582-.1240234,1.3701172-1.3876953,2.6416016-2.8662109,3.815918-4.4394531.0498047-.074707.1015625-.1494141.1523438-.2226562.0678711-.1098633.144043-.2138672.2265625-.3125.0991211-.1157227.2001953-.2099609.3032227-.2822266.1035156-.0722656.2197266-.0766602.3500977-.015625Zm-7.7368164,2.7412109c.21875-.3164062.3261719-.6210938.3183594-.9145508.0673828-.8691406-.1171875-1.3901367-.5541992-1.5629883-.4370117-.1738281-1.0395508.0361328-1.8066406.6259766-.3037109.2431641-.5952148.5078125-.8720703.7929688-1.3364258,1.5498047-2.2416992,3.2426758-2.7148438,5.0791016-.0825195.284668-.1196289.5649414-.1113281.8417969-.0024414.6201172.2944336.7587891.8925781.4101562.440918-.2763672.8574219-.6030273,1.246582-.9775391,1.3359375-1.3310547,2.5356445-2.7631836,3.6015625-4.2949219Z"/>
        </g>
        <g>
          <path class="cls-1" d="m25.2078871,58.3821409c.9248047-.4960938,1.3779297-.2729492,1.3588867.6694336-.0561523.590332-.1953125,1.1831055-.4169922,1.7788086-.565918,1.6420898-1.1904297,3.2788086-1.8759766,4.9140625-.2451172.6147461-.4892578,1.2275391-.734375,1.8398438-1.105957,2.6767578-2.0585938,5.3662109-2.8598633,8.0693359-.4399414,1.5644531-.7578125,3.1166992-.953125,4.65625-.0048828.0576172-.0092773.1152344-.0136719.171875-.1123047.6044922-.1132812,1.1748047-.0019531,1.7133789.0268555.0834961.0268555.1704102.0043945.2612305-.0239258.0908203-.0878906.1708984-.190918.2421875-.1172062.0839844-.2148438.1103516-.2939453.0800781-.0800781-.0317383-.1381836-.0942383-.1738281-.1875-.1235352-.2529297-.1655273-.5473633-.1289062-.8842773.0957031-1.5151367.3364258-3.0546875.7211914-4.6157227.3759766-1.6064453.8500977-3.2050781,1.4233398-4.7963867.5722656-1.5908203,1.1704102-3.1743164,1.796875-4.7504883.2578125-.6381836.515625-1.2719727.7714844-1.8994141.605957-1.4580078,1.1689453-2.9169922,1.6865234-4.3769531.0146484-.0366211.0288086-.0737305.0415039-.1113281.2441406-.6015625.3999023-1.1992188.4677734-1.7919922.0322266-.2675781.0058594-.4213867-.0776367-.4638672-.0859375-.0410156-.2490234.0175781-.4912109.1791992-.4399414.3100586-.8554688.6655273-1.2480469,1.0649414-1.4389648,1.4804688-2.7695312,3.0419922-3.9926758,4.6826172-1.0737305,1.4257812-2.1152344,2.8710938-3.1274414,4.3378906-.2719727.3935547-.5478516.7880859-.831543,1.1845703-.2333984.3398438-.4892578.6728516-.7666016,1.0009766-.0854492.1113281-.1801758.1953125-.2827148.2548828-.1030273.0585938-.2133789.0751953-.3320312.0458984-.2011719-.0869141-.2749023-.2607422-.2216797-.5214844.0473633-.328125.1220703-.6572266.2250977-.9873047.671875-2.1855469,1.4379883-4.3623047,2.2963867-6.5244141.1230469-.3237305.246582-.6484375.3706055-.9726562.1518555-.3974609.296875-.7885742.4360352-1.1728516.7075195-1.7768555,1.3427734-3.5537109,1.9082031-5.3291016.1982422-.5791016.3193359-1.1459961.3623047-1.6987305.0161133-.2070312-.0102539-.324707-.0791016-.3535156-.0683594-.0283203-.2021672.0263672-.3989258.1650391-.4057617.2915039-.7749023.6176758-1.1098633.9819336-.9897461,1.0307617-1.9106445,2.1201172-2.7661133,3.265625-1.5239258,1.9980469-2.9438477,4.0458984-4.2617188,6.1464844-1.3188477,2.1005859-2.5756836,4.2275391-3.7714844,6.3828125-1.0053711,1.8041992-1.9838867,3.6181641-2.9355469,5.4423828-.4873047.921875-.9794922,1.84375-1.4790039,2.7675781-.4628906.8916016-.9643555,1.7714844-1.5019531,2.6367188-.1884766.3173828-.4091797.6132812-.6606445.8886719-.5654297.5219727-.9238281.4853516-1.074707-.1103516-.0322266-.2753906-.0332031-.5639648.0019531-.8652344.1381836-1.0732422.3808411-2.1606445.7290039-3.2626953,1.3876953-4.6083984,3.0522461-9.2001953,4.9956055-13.7744141,1.2182617-2.8613281,2.5029297-5.7167969,3.8500977-8.5639648.3422852-.7270508.6831055-1.4545898,1.0234375-2.1811523.0014648-.0224609.0087891-.0415039.0214844-.0556641.0683594-.1757812.1630859-.3339844.2832031-.4765625.1679688-.1875.3310547-.2382812.4882812-.1523438.0620117.0419922.0908203.0966797.0854492.1660156s-.0341797.1552734-.0859375.2578125c-1.5693359,3.296875-3.0751953,6.6074219-4.5146484,9.9296875-1.440918,3.3217773-2.7470703,6.6669922-3.9165039,10.0371094-.8886719,2.4082031-1.6015625,4.8193359-2.1386719,7.2314453-.0537109.2734375-.097168.5439453-.128418.8125-.0009766.0107422-.0019531.0224609-.0024414.0341797-.0043945.0576172-.0058594.1362305-.003418.237793.0073242.0551758.0126953.1333008.0146484.2329102.4145508-.5400391.7319336-1.0244141.9511719-1.4511719.0107422-.0029297.0161133-.0097656.0166016-.0205078.7607422-1.3261719,1.4833984-2.6611328,2.1674805-4.0019531.0893555-.168457.1782227-.3378906.269043-.5058594,2.2290039-4.3168945,4.6601562-8.5576172,7.2929688-12.7236328,1.5981445-2.5234375,3.3569336-4.9462891,5.2773438-7.265625.6040039-.734375,1.2539062-1.4248047,1.9501953-2.0673828.2963867-.2983398.6225586-.546875.9770508-.7460938.684082-.359375,1.0664062-.1982422,1.1445312.484375.027832.4794922-.043457.9819336-.2163086,1.5107422-.0014648.0224609-.0097656.0517578-.0239258.0898438-.4067383,1.4326172-.8901367,2.8662109-1.4506836,4.3017578-.0405273.1010742-.0761719.199707-.1044922.296875-.3173828.8349609-.6401367,1.6748047-.96875,2.5244141-.8212891,2.1201172-1.5932617,4.2460938-2.3173828,6.3769531-.0717773.2099609-.144043.4365234-.2167969.6791992-.0322266.121582-.0693359.2495117-.1132812.3842773.1279297-.0761719.2294922-.1630859.3076172-.2607422.0786133-.0986328.1494141-.1953125.2124023-.2890625.0239258-.0400391.0493164-.0805664.074707-.1201172,1.5332031-2.2597656,3.1542969-4.4677734,4.8657227-6.625.9472656-1.2011719,1.9648438-2.3359375,3.0556641-3.4033203.4145508-.4169922.8579102-.7680664,1.3295898-1.0517578Z"/>
          <path class="cls-1" d="m37.4510511,63.2708128c.128418-.1103516.2509766-.1235352.3642578-.0380859.0917777.0917969.0996094.2138672.0214844.3686523-.1005859.159668-.2055664.309082-.3149414.4487305-1.0009766,1.1933594-2.0336914,2.359375-3.0957031,3.4990234-.3842773.4321289-.8168945.796875-1.2998047,1.0947266-.8686523.4726562-1.3793945.2910156-1.5332031-.5419922-.0361328-.5341797.0405273-1.0888672.2285156-1.6660156.059082-.2177734.1186523-.4179688.1782227-.6025391.0273438-.0859375.050293-.1582031.0644531-.21875-.1782227.1904297-.3574219.3857422-.5380859.5878906-.4174805.4521484-.8359375.9091797-1.2553711,1.3735352-.0244141.0288086-.0483398.0566406-.0717773.0854492-.4453125.5146484-.9052734,1.0048828-1.378418,1.4707031-.3574219.3574219-.7421875.6660156-1.15625.9248047-.972168.5527344-1.4921875.3349609-1.5576172-.6552734-.0170898-.4814453.0488281-.9726562.1967773-1.4716797.3032227-1.0908203.7055664-2.171875,1.2045898-3.2426758.0014648-.0224609.0092773-.0473633.0219727-.0737305.0239258-.0273438.0429688-.0600586.0566406-.0976562.0546875-.1376953.1240234-.2563477.2075195-.3554688.0854492-.1000977.1972656-.1328125.3364258-.0986328.1176758.0380859.1665039.1113281.1464844.21875-.0175781.1064453-.0595703.2167969-.1235352.3349609-.0131836.0371094-.0273438.0693359-.0410156.0952148-.4619141,1.0273438-.8388672,2.0629883-1.1274414,3.1044922-.1367188.484375-.1938477.9516602-.1738281,1.3979492.0131836.3808594.2041016.4648438.5703125.2509766.4814453-.2749023.9257812-.6308594,1.331543-1.0688477.918457-.9692383,1.7915039-1.9892578,2.6181641-3.0600586.2431641-.3085938.4858398-.6210938.7304688-.9404297.206543-.265625.4130859-.5351562.6206055-.8120117.0117188-.0029297.0239258-.0112305.034668-.0258789.1230469-.1660156.2539062-.3095703.3950195-.4350586.1640625-.1298828.3012695-.1689453.4111328-.1162109.1123047.0512695.1538086.1713867.128418.3588867-.0454102.1679688-.1074219.3364258-.1865234.5019531-.0141602.0371094-.0283203.0810547-.0424805.1293945-.0541992.1254883-.1083984.2583008-.1621094.3959961-.3061523.6835938-.5610352,1.3730469-.7695312,2.0673828-.1020508.3422852-.1660156.6738281-.1914062.9960938-.0605469.7832031.2636719.8969727.9750977.3388672.3857422-.3193359.746582-.6669922,1.0820312-1.0429688.4921875-.5595703.9848633-1.1206055,1.4770508-1.6801758.3725586-.4296875.7451172-.8598633,1.1176758-1.2895508.1572266-.1845703.3237305-.3544922.4995117-.5107422Z"/>
          <path class="cls-1" d="m45.0853285,61.3635862c.1455078-.0351562.234375.0170898.2675781.1557617.0322266.1499023-.0161133.2817383-.1464844.3911133-.1850586.1357422-.3754883.2558594-.5693359.359375l-.0014648.0175781c-1.7441406,1.0449219-3.4672852,2.1582031-5.1679688,3.340332-.4130859.2480469-.6196289.5864258-.6201172,1.0151367-.0146484.7392578-.2768555,1.4526367-.7905273,2.1416016-.4311523.6142578-.9648438,1.0146484-1.6044922,1.2041016-.7768555.1445312-1.0839844-.1943359-.9223633-1.012207.1186523-.3911133.3105469-.7539062.5771484-1.0898438.4775391-.6479492,1.0244141-1.2099609,1.6420898-1.6879883.3144531-.2460938.4111328-.5068359.2900391-.7822266-.203125-.6171875-.4584961-1.1992188-.7666016-1.7460938-.0092773-.0205078-.0185547-.0458984-.027832-.0786133-.0473633-.0786133-.0952148-.1625977-.144043-.253418-.1811523-.328125-.3413086-.6738281-.4770508-1.0356445-.4741211-1.2182617-.3579102-2.5805664.3505859-4.0864258.7719727-1.6113281,1.902832-2.8691406,3.3959961-3.7744141.7260742-.4697266,1.4482422-.6738281,2.1660156-.6113281,1.0336914.2226562,1.3637695.9628906.9926758,2.2158203-.0317383.1220703-.0756836.2285156-.1313477.3203125-.0561523.0932617-.1503906.1450195-.2822266.1542969-.0981445-.0107422-.1577148-.0527344-.1791992-.1269531-.0229492-.0722656-.0283203-.1621094-.0205078-.2666016.0146484-.059082.0307617-.1191406.046875-.1796875.0029297-.0341797.0048828-.0634766.0068359-.0869141.159668-.9306641-.1884766-1.3710938-1.0458984-1.3222656-.3100586.0302734-.6181641.1225586-.9248047.2758789-1.1875.6274414-2.140625,1.4926758-2.8618164,2.5942383-.7197266,1.1015625-1.081543,2.1669922-1.0859375,3.1972656.0053711.6425781.1513672,1.2167969.440918,1.7226562.1123047.2441406.2368164.4790039.3720703.7055664.355957.6264648.6484375,1.300293.8764648,2.0249023.0322266.1396484.0913086.1962891.1757812.1689453.0834961-.0249023.1728516-.078125.2670898-.1572266.0224609-.0175781.0458984-.0341797.0693359-.0517578,1.4462891-1.0068359,2.9101562-1.9672852,4.3935547-2.8808594.3447266-.2080078.6879883-.4106445,1.0322266-.6074219.137207-.078125.2729492-.1342773.4067383-.1669922Zm-7.8696289,7.4731445c.5932617-.5961914.9130859-1.3295898.9584961-2.1987305-.7695312.6054688-1.3720703,1.2597656-1.8110352,1.965332l-.0170898.0214844c-.0629883.1064453-.1123047.2075195-.1474609.3071289-.034668.0996094-.0166016.1845703.0537109.2578125.0698242.0844727.1606445.1113281.2734375.078125.1118164-.0327148.2192383-.0849609.3237305-.1552734.1264648-.0756836.2475586-.168457.3662109-.2758789Z"/>
          <path class="cls-1" d="m54.0399183,59.3743284c.09375.0556641.1367188.1298828.1293945.2216797-.0073242.0927734-.0419922.1972656-.105957.3144531-.0751953.1318359-.1630859.2597656-.2597656.3852539-.8286133,1.0942383-1.7089844,2.1381836-2.6401367,3.1337891-.3115234.3354492-.6508789.621582-1.019043.8579102-.7802734.4609375-1.2451172.3193359-1.3955078-.4233398-.0512695-.3266602-.0410156-.668457.0307617-1.0249023.0512695-.2382812.0981445-.4819336.1381836-.7285156.0200195-.1074219.0385742-.2124023.0585938-.3193359l-.0166016.0039062c-.0322266-.0029297-.0605469-.0019531-.0830078.0039062-.1567383.1835938-.3076172.3735352-.4541016.5673828-.3286133.4306641-.6689453.8515625-1.0180664,1.2636719-.581543.7299805-1.2333984,1.3740234-1.956543,1.9345703-.6616211.4887695-1.1699219.65625-1.5244141.5058594-.3549805-.1513672-.4755859-.5966797-.3642578-1.3349609.3120117-1.8964844,1.2470703-3.5810547,2.8066406-5.0551758.3544922-.3359375.7392578-.5756836,1.1557617-.7226562.9008789-.3320312,1.4736328-.0986328,1.7182617.7006836.0185547.0527344.0356445.1054688.0537109.1572266.0200195.0292969.0336914.0600586.0429688.0913086.0668945-.0268555.1186523-.0625.1547852-.105957.0366211-.0419922.0727539-.090332.1098633-.1455078.0366211-.0419922.0727539-.0854492.1083984-.1279297.0717773-.0727539.1411133-.1269531.2099609-.1611328.0678711-.0327148.140625-.0424805.2158203-.0263672.1474609.0644531.2041016.1870117.1689453.3652344-.0522461.2397461-.1142578.4741211-.1870117.706543-.0415039.1118164-.0766602.2226562-.1083984.3305664-.2626953.7207031-.4448242,1.4306641-.5424805,2.1328125-.0043945.0585938-.0087891.1162109-.0131836.1738281-.0351562.1547852-.0488281.2939453-.0410156.4160156.0063477.1230469.0678711.2094727.1845703.2597656.1499023.0429688.2949219.0166016.4335938-.0791016.1386719-.0966797.2670898-.2089844.3876953-.3408203.0351562-.0302734.0639648-.0605469.0883789-.0898438.9975586-1.0097656,1.9243164-2.0888672,2.7792969-3.234375.0375977-.0541992.0742188-.1083984.1113281-.1621094.050293-.0800781.105957-.15625.1660156-.2275391.0717773-.0849609.1459961-.1542969.2211914-.2060547.0756836-.0527344.1606445-.0556641.2553711-.0107422Zm-5.6386719,1.9980469c.1601562-.2314453.237793-.4536133.2324219-.6669922.0493164-.6337891-.0849609-1.0136719-.4038086-1.140625-.3188477-.1245117-.7573242.0268555-1.3154297.4560547-.2231445.1796875-.4345703.371582-.6362305.5791016-.9741211,1.1298828-1.6347656,2.3632812-1.9790039,3.7021484-.059082.2060547-.0864258.4101562-.081543.6123047-.0014648.4521484.2158203.5527344.6503906.2993164.3222656-.2016602.6254883-.4404297.9091797-.7124023.9731445-.9716797,1.8486328-2.0136719,2.6240234-3.1289062Z"/>
          <path class="cls-1" d="m61.5677504,57.3572386c.1455078-.0351562.234375.0170898.2666016.1557617.0322266.1499023-.0161133.28125-.1455078.390625-.1860352.1362305-.3754883.2558594-.5703125.3598633l-.0014648.0175781c-1.7441406,1.0449219-3.4663086,2.1582031-5.1669922,3.340332-.4130859.2480469-.6206055.5864258-.6210938,1.0146484-.0136719.7392578-.2768555,1.453125-.7905273,2.1420898-.4301758.6142578-.9648438,1.0146484-1.6035156,1.2045898-.7778516.1435547-1.0849609-.1948242-.9233398-1.0126953.1196289-.3916016.3115234-.7539062.5771484-1.0898438.4775391-.6479492,1.0244141-1.2099609,1.6420898-1.6879883.3154297-.2460938.4111328-.5073242.2910156-.7827148-.2041016-.6171875-.4594727-1.1987305-.7666016-1.7460938-.0102539-.0205078-.0185547-.0458984-.027832-.078125-.0473633-.0786133-.0961914-.1625977-.144043-.2539062-.1821289-.328125-.3413086-.6738281-.4770508-1.0351562-.4750977-1.2182617-.3579102-2.5805664.3505859-4.0864258.7709961-1.6108398,1.902832-2.8691406,3.3959961-3.7744141.7260742-.4697266,1.4472656-.6738281,2.1650391-.6118164,1.0336914.2231445,1.3637695.9628906.9936523,2.2163086-.0327148.121582-.0756836.2280273-.1323242.3203125-.0551758.0932617-.1503906.1450195-.2822266.1538086-.0981445-.0107422-.1577148-.0527344-.1791992-.1269531-.0219727-.0722656-.0283203-.1616211-.0205078-.2661133.015625-.059082.0317383-.1196289.046875-.1801758.0029297-.0341797.0048828-.0634766.0068359-.0869141.1606445-.9306641-.1884766-1.3710938-1.0458984-1.3217773-.309082.0302734-.6171875.1225586-.9238281.2758789-1.1884766.6279297-2.1416016,1.4926758-2.862793,2.5942383-.71875,1.1015625-1.081543,2.1665039-1.0849609,3.1967773.0043945.6425781.1503906,1.2172852.4399414,1.7226562.1123047.2441406.2368164.4794922.3720703.7060547.355957.6259766.6494141,1.3007812.8764648,2.0249023.0332031.1396484.0922852.1962891.1757812.1694336.0844727-.0253906.1728516-.0791016.2680664-.1582031.0224609-.0170898.0449219-.0341797.0693359-.0512695,1.4453125-1.0068359,2.9101562-1.9672852,4.3935547-2.8808594.3447266-.2084961.6879883-.4106445,1.0322266-.6074219.137207-.0786133.2729492-.1342773.4067383-.1669922Zm-7.8706055,7.4731445c.5942383-.5966797.9140625-1.3300781.9594727-2.1992188-.7705078.6054688-1.3730469,1.2602539-1.8110352,1.9658203l-.0180664.0214844c-.0629883.1064453-.1123047.2070312-.1474609.3066406-.034668.0996094-.0166016.1850586.0546875.2578125.0698242.0849609.1606445.1113281.2724609.0786133s.2202148-.0854492.324707-.1557617c.1254883-.0751953.2475586-.1679688.3652344-.2753906Z"/>
          <path class="cls-1" d="m70.3978285,55.4817503c.0239258-.0288086.0419922-.0493164.0537109-.0634766.0854492-.1113281.1777344-.2011719.2758789-.2705078.0981445-.0688477.199707-.0654297.3027344.0107422.0898438.1025391.1098633.2167969.0556641.3427734-.053731.125-.1289062.2460938-.2250977.359375-.9033203,1.2041016-1.8574219,2.3623047-2.8642578,3.4765625-.2773438.3271484-.59375.5908203-.9472656.7890625-.5820312.3007812-.9628906.206543-1.1445312-.2802734-.1123047-.3916016-.1342773-.8085938-.065918-1.2553711.0195312-.2529297.0395508-.5068359.059082-.7607422.0429688-.4165039.0810547-.8330078.1132812-1.2480469.003418-.0458984.0068359-.0859375.0092773-.1201172.0234375-.1635742.027832-.3168945.0112305-.4604492-.0166016-.1425781-.0932617-.2431641-.2304688-.3007812-.1503906-.0419922-.2949219-.015625-.4335938.0805664-.1391602.0961914-.2792969.2124023-.4208984.3476562-.0361328.043457-.078125.081543-.1240234.1157227-.4848633.456543-.9228516.953125-1.3144531,1.4892578-1.1430664,1.4638672-2.1049805,3.0092773-2.8876953,4.6337891-.0136719.0263672-.0268555.0576172-.0410156.0952148-.0249023.0512695-.0541992.1040039-.0859375.1557617-.0307617.0527344-.0698242.0966797-.1176758.1303711-.034668.0317383-.0693359.0571289-.1035156.0766602-.0708008.0625-.1367188.109375-.199707.1416016-.0629883.0327148-.1313477.0410156-.2080078.0253906-.0844727-.0253906-.1347656-.078125-.1513672-.1591797-.0151367-.0800781-.0136719-.1679688.0048828-.2636719.0493164-.2148438.109375-.4331055.1821289-.6533203,1.3105469-4.1835938,2.7836914-8.3564453,4.4208984-12.5175781,2.3686523-6.2592773,4.8520508-12.5019531,7.4487305-18.7275391.1455078-.3291016.2915039-.6523438.4370117-.9707031.0517578-.1132812.1166992-.2114258.1948242-.2929688.0771484-.0805664.1757812-.1132812.2944336-.097168.1074219.0317383.1591797.0952148.1572266.190918-.0014648.097168-.0229492.2011719-.0654297.3125-.0986328.2851562-.2138672.5722656-.3457031.8642578-.0136719.0371094-.0283203.0805664-.0439453.1293945-2.7744141,6.6977539-5.4370117,13.4125977-7.984375,20.1459961-1.0341797,2.7255859-2.0283203,5.4594727-2.9863281,8.2006836-.0439453.1459961-.0942383.3056641-.1518555.4780273-.0405273.1005859-.0825195.2124023-.125.3349609.1293945-.109375.2275391-.2128906.2954102-.3085938.0668945-.0957031.1269531-.1889648.1767578-.2807617.0273438-.0512695.0576172-.0981445.0947266-.1416016.6508789-1.050293,1.3886719-2.0375977,2.2163086-2.9619141.371582-.4291992.7836914-.7895508,1.2338867-1.0805664.8691406-.4931641,1.3808594-.3242188,1.5356445.5078125.0620117.4716797.050293.9648438-.0332031,1.4833984-.0043945.0576172-.0161133.1220703-.03125.1938477-.1015625.5898438-.1347656,1.1689453-.1025391,1.7368164.0170898.4814453.2314453.5371094.6435547.1669922.3266602-.2724609.6196289-.5751953.8745117-.9086914.5332031-.6489258,1.0649414-1.3041992,1.5976562-1.9643555.1567383-.1855469.3081055-.3691406.4536133-.5517578.0366211-.0532227.0795898-.1083984.1269531-.1660156.0492964-.0683594.1049805-.1386719.1650391-.2099609Z"/>
          <path class="cls-1" d="m71.1190199,59.290344c-.9707031.2363281-1.4707031-.0888672-1.5004883-.9746094-.0024414-.5302734.0957031-1.0571289.2954102-1.5800781.199707-.5234375.4404297-1.0449219.7207031-1.5654297.0405273-.1005859.1044922-.1748047.1899414-.2241211.0859375-.0483398.1772461-.0620117.2744141-.0405273.0961914.0322266.1401367.0888672.1342773.1699219-.0063477.0810547-.0361328.1777344-.0888672.2929688-.2836914.5673828-.5205078,1.1499023-.7099609,1.7490234-.0029297.0351562-.0107422.0644531-.0244141.0908203-.0292969.1083984-.0546875.222168-.0742188.3398438-.1796875,1.0380859.2241211,1.3300781,1.2119141.8754883.5708008-.3085938,1.1147461-.684082,1.6298828-1.1264648,1.3198242-1.0537109,2.5878906-2.1708984,3.8066406-3.3486328.4174805-.4287109.6655273-.5400391.7480469-.3339844.065918.1420898.0581055.2773438-.0224609.4033203-.0820312.1279297-.1748047.237793-.2797852.3310547l-.019043.0209961c-1.6376953,1.6420898-3.3828125,3.1171875-5.2363281,4.4272461-.3686523.2470703-.7207031.4121094-1.0556641.4931641Zm.3950195-5.9267578c-.1665039.0283203-.2470703-.0532227-.2436523-.246582.0043945-.1928711.0732422-.3735352.2070312-.5410156.5439453-.8105469,1.1513672-1.5742188,1.8193359-2.2915039.0942383-.0898438.1948242-.1767578.2998047-.2587891.1391602-.1015625.2597656-.1137695.3642578-.0371094.0791016.105957.0742188.2304688-.0136719.3769531-.1108398.1616211-.2265625.3085938-.3457031.4394531-.6557617.6904297-1.2397461,1.4365234-1.7504883,2.2387695-.0375977.0668945-.0805664.1279297-.1293945.184082-.0483398.0566406-.1181641.1020508-.2075195.1357422Z"/>
        </g>
      </g>
    </g>
  </g>
</svg>