<?xml version="1.0" encoding="UTF-8"?>
<svg id="_レイヤー_2" data-name="レイヤー 2" xmlns="http://www.w3.org/2000/svg" viewBox="0 0 226.9897461 55.1945801">
  <defs>
    <style>
      .cls-1 {
        fill: #fff;
        stroke-width: 0px;
      }
    </style>
  </defs>
  <g id="_レイヤー_1-2" data-name="レイヤー 1">
    <g>
      <path class="cls-1" d="m27.8305664,20.0097656l-5.6523438-8.442749-5.6523438,8.442749h-4.3408203v-4.8653564h1.3120117l6.0576172-9.0627441V.2385254h5.2231445v5.8431396l6.081543,9.0627441h1.3115234v4.8653564h-4.340332Z"/>
      <path class="cls-1" d="m48.8139648,8.7766113h6.4873047v4.269043h-6.4873047v2.7904053h6.9643555v4.1737061h-19.5087891v-4.1737061h6.9399414v-2.7904053h-6.4628906v-4.269043h6.4628906v-2.6949463h-1.1923828v1.6455078h-5.9863281V3.5535889h1.2880859V.4769287h4.6982422v1.4310303h1.1923828V0h5.6044922v1.907959h6.9643555v4.1737061h-6.9643555v2.6949463Z"/>
      <path class="cls-1" d="m67.7705078,6.8686523h8.1088867v4.5313721h2.8623047v3.5773926h-2.8623047v.9541016h-4.2929688v-.9541016h-4.0541992v1.4310303h11.2094727v3.5773926h-15.2636719v-8.5858154h8.1083984v-.9539795h-8.1083984v-4.7698975h-2.6235352v-3.3388672h2.6235352V.90625h4.2924805v1.4310303h10.9711914v3.3388672h-10.9711914v1.1925049Z"/>
      <path class="cls-1" d="m84.8671875,19.9858398v-2.1463623h-.9541016v-2.6235352h3.3388672v4.7698975h-2.3847656Z"/>
      <path class="cls-1" d="m120.1606445,15.5021973l5.2705078,1.6694336h1.8837891v2.8381348h-3.1240234l-4.0302734-1.1447754v1.1447754h-5.2236328v-1.1447754l-4.0302734,1.1447754h-3.1240234v-2.8381348h1.8837891l5.2705078-1.6694336v-.4055176h-7.1303711v-2.9810791h7.1303711v-.7631836h-3.0048828V1.0255127h2.9580078V0h5.3417969v1.0255127h2.9335938v10.3269043h-3.0048828v.7631836h7.1542969v2.9810791h-7.1542969v.4055176Zm-12.3540039-10.4222412V1.001709h2.4086914v1.4786377h1.1445312v2.5996094h-3.5532227Zm0,6.177002v-3.1481934h1.0014648v-1.1447754h2.5517578v4.2929688h-3.5532227Zm8.1801513-6.0100098h3.1240479v-.8109131h-3.1240479v.8109131Zm3.1240479,2.6949463v-.8824463h-3.1240479v.8824463h3.1240479Zm4.6513672-2.7666016v-2.6234131h1.1445312v-1.454834h2.4082031v4.0782471h-3.5527344Zm0,6.081665v-4.2929688h2.5517578v1.1447754h1.0009766v3.1481934h-3.5527344Z"/>
      <path class="cls-1" d="m149.4916992,19.9858398h-16.2177734V.6678467h4.2929688v15.0251465h7.6318359v-5.4853516h4.2929688v9.7781982Z"/>
      <path class="cls-1" d="m174.2915039,19.9858398h-14.5478516v-7.3933105h-3.3388672v-4.2928467h3.3388672v-1.1925049h-3.3388672V3.0527344h3.3388672V.6678467h4.2929688v2.3848877h4.7695312v4.0544434h-4.7695312v1.1925049h4.7695312v4.2928467h-4.7695312v3.1004639h5.9619141v-5.9624023h4.2929688v10.255249Z"/>
      <path class="cls-1" d="m197.4223633,19.9858398h-13.5947266v-4.2928467h9.3017578v-4.5314941h-12.1640625v-4.2928467h16.4570312v13.1171875Zm-2.6240234-19.0795898v4.2929688h-11.2089844V.90625h11.2089844Z"/>
      <path class="cls-1" d="m215.0668945.4293213v13.1171875h-4.2929688V.4293213h4.2929688Zm0,15.2636719v4.2928467h-4.2929688v-4.2928467h4.2929688Z"/>
      <path class="cls-1" d="m5.3901367,35.6617432v10.4699707h-1.0732422v9.0628662H.8823242v-9.0628662h-.8823242v-4.4121094h2.0507812v-6.0578613h3.3393555Zm3.3149414,19.5328369l-.5488281-1.2402344-.5483398,1.2402344h-2.003418v-3.6966553h1.0732422l.190918-.4293213-.8583984-1.907959v-2.8381348h1.8359375v1.2163086l.3100586.7154541.3100586-.7154541v-1.907959h-2.4560547v-3.9351807h4.6743164v6.4870605l-1.2641602,2.909668.5488281,1.1687012h10.1835938v2.9334717h-11.4477539Zm-2.6948242-15.5737305v-3.9591064h4.6743164v5.3662109h-2.5517578v-1.4071045h-2.1225586Zm14.3095703,2.1702881h-.3579102v3.0765381h-3.1005859v.5723877h3.1005859v2.5280762h-3.1005859v.5723877h3.2915039v2.5280762h-3.2915039v.7631836h-2.8618164v-.7631836h-2.9335938v-2.5280762h2.9335938v-.5723877h-2.5996094v-2.5280762h2.5996094v-.5723877h-2.5996094v-2.5279541h2.5996094v-.548584h-2.8618164v-2.5280762h2.8618164v-.548584h-2.4326172v-2.5279541h2.4326172v-1.001709h2.8618164v1.001709h3.1005859v3.0765381h.3579102v2.5280762Zm-2.7905273-2.5280762v-.548584h-.6679688v.548584h.6679688Zm-.6679688,2.5280762v.548584h.6679688v-.548584h-.6679688Z"/>
      <path class="cls-1" d="m43.378418,51.8317871h-7.3935547v-4.2929688h3.1005859v-4.2928467h-7.1547852v11.9246826h-4.2929688v-11.9246826h-2.8618164v-4.2929688h2.8618164v-3.1003418h4.2929688v3.1003418h3.3388672v-3.1003418h4.2929688v3.1003418h3.815918v12.8787842Z"/>
      <path class="cls-1" d="m62.4541016,55.1706543h-4.2929688v-12.163208h-4.0541992v12.163208h-5.9624023v-4.2928467h1.6694336v-7.8703613h-1.6694336v-4.2929688h1.6694336v-2.8618164h4.2929688v2.8618164h8.347168v16.4561768Zm5.2470703-17.887085v10.0168457h-4.2929688v-10.0168457h4.2929688Z"/>
      <path class="cls-1" d="m77.2373047,36.8065186v18.3641357h-4.0546875v-18.3641357h4.0546875Zm13.3554688,5.723877h-4.2929688v-1.4309082h-7.1547852v-4.2929688h11.4477539v5.723877Zm0,8.3474121v4.2928467h-11.4477539v-5.9622803h4.2929688v1.6694336h7.1547852Z"/>
      <path class="cls-1" d="m96.7900391,55.1706543v-2.1463623h-.9541016v-2.6235352h3.3388672v4.7698975h-2.3847656Z"/>
      <path class="cls-1" d="m132.2749023,43.9614258h6.4863281v4.269043h-6.4863281v2.7904053h6.9638672v4.1737061h-19.5087891v-4.1737061h6.9404297v-2.7904053h-6.4638672v-4.269043h6.4638672v-2.6949463h-1.1933594v1.6455078h-5.9853516v-4.173584h1.2871094v-3.0766602h4.6982422v1.4310303h1.1933594v-1.907959h5.6044922v1.907959h6.9638672v4.1737061h-6.9638672v2.6949463Z"/>
      <path class="cls-1" d="m159.7456055,41.8149414h2.1464844v3.815918h-2.1464844v4.5313721h-10.7324219v.9541016h10.7324219v3.815918h-15.0253906v-8.5859375h10.7324219v-.7154541h-10.7324219v-3.815918h10.7324219v-.7154541h-10.7324219v-3.815918h10.7324219v-1.6694336h4.2929688v1.6694336h2.1464844v3.815918h-2.1464844v.7154541Z"/>
      <path class="cls-1" d="m168.3754883,44.1999512h7.3925781v-8.34729h4.2929688v1.6694336h5.7246094v4.2928467h-5.7246094v2.3850098h5.7246094v4.0543213h-5.7246094v6.9163818h-11.6855469v-10.9707031Zm7.3925781,6.6778564v-2.6235352h-3.0996094v2.6235352h3.0996094Z"/>
      <path class="cls-1" d="m209.3452148,55.1706543h-13.5947266v-4.2928467h9.3017578v-4.5314941h-12.1630859v-4.2928467h16.4560547v13.1171875Zm-2.6240234-19.0795898v4.2929688h-11.2089844v-4.2929688h11.2089844Z"/>
      <path class="cls-1" d="m226.9897461,35.6141357v13.1171875h-4.2929688v-13.1171875h4.2929688Zm0,15.2636719v4.2928467h-4.2929688v-4.2928467h4.2929688Z"/>
    </g>
  </g>
</svg>