<?xml version="1.0" encoding="UTF-8"?>
<svg id="_レイヤー_2" data-name="レイヤー 2" xmlns="http://www.w3.org/2000/svg" viewBox="0 0 222.7074192 59.548695">
  <defs>
    <style>
      .cls-1 {
        fill: #231815;
      }

      .cls-1, .cls-2, .cls-3 {
        stroke-width: 0px;
      }

      .cls-2 {
        fill: #e50012;
      }

      .cls-3 {
        fill: #004da0;
      }
    </style>
  </defs>
  <g id="_レイヤー_1-2" data-name="レイヤー 1">
    <g>
      <polygon class="cls-1" points="94.6045647 0 83.6961823 0 69.4004185 20.7250567 69.4004185 36.5961917 74.5816761 29.0294206 74.5816761 59.548695 83.9086514 59.548695 83.9086514 15.5610766 94.6045647 0"/>
      <polygon class="cls-1" points="118.468964 37.4574547 140.4964583 37.4574547 142.9450061 28.5493817 118.468964 28.5493817 118.468964 18.2671783 140.5137226 18.2671783 142.8862813 9.5413422 118.468964 9.5413422 118.468964 .0019109 109.0478523 .0019109 109.0478523 9.5413422 91.3051124 9.5413422 88.8556948 18.2671783 108.9778859 18.2671783 108.9778859 28.5493817 88.9956144 28.5493817 86.5470534 37.4574547 109.0478523 37.4574547 109.0478523 49.9610687 88.7831453 49.9610687 86.166172 59.5324587 140.531 59.5324587 143.1203373 49.9610687 118.468964 49.9610687 118.468964 37.4574547"/>
      <polygon class="cls-1" points="174.246431 16.6252145 166.8955687 16.6252145 166.8955687 .050185 157.422651 .050185 157.422651 16.6252145 152.6991337 16.6252145 150.1797629 26.1568835 157.422651 26.1568835 157.422651 59.5125059 166.8955687 59.5125059 166.8955687 26.1568835 171.6968015 26.1568835 174.246431 16.6252145"/>
      <path class="cls-1" d="m201.9599321,27.1884697l.0146812,3.4253892h-2.1661518l-1.7403174,7.2541165h3.8796898v12.1166836h-2.8104385l-2.5573786,9.518701h4.1025175c5.8359292-.3040225,8.7577816-3.3200244,9.0644003-7.4061211v-14.2292634h5.4991047l-.012968,12.1270421-2.9918056.0051793-2.5781221,9.5152481h4.6570037c5.8152121-.3040093,8.0798098-3.2725147,8.3872719-7.3594812v-21.5507369l-12.8015742.0086321v-3.4271156l-7.9459129.0017264Z"/>
      <path class="cls-1" d="m176.4815871,27.1884697l.0138114,3.4253892h-2.5150746l-1.7403174,7.2541165h4.2294824v12.1166836h-3.3709869l-2.5565088,9.518701h4.6621961c5.8359292-.3040225,8.7569118-3.3200244,9.0635305-7.4061211v-14.2292634h5.4991047l-.012968,12.1270421-2.9918056.0051793-2.5772523,9.5152481h4.6570037c5.8152121-.3040093,8.07894-3.2725147,8.3864285-7.3594812v-21.5507369l-12.8007308.0086321v-3.4271156l-7.9459129.0017264Z"/>
      <path class="cls-1" d="m201.9827315,16.6167537h10.1258761v-3.5316105h-12.0743663v2.4900084c0,6.8758181-6.3316905,10.0282868-11.3825567,10.0282868h-12.2738675l.0069321-9.0272755h14.3095752v-3.4910197h-16.4852158l2.1505744-8.3535868h14.3346414V.0097655h9.3252357v4.7217908l20.0634794.0328153v13.9045107c-.2962601,4.3806304-2.3570077,6.9181353-7.9744319,6.9414619h-10.1431667l.0172906-8.9935904Z"/>
      <polygon class="cls-2" points="19.972697 3.4800681 19.972697 26.8056905 39.9713893 26.8056905 39.9713893 50.1572225 53.2955042 36.8141037 53.2955042 3.4800681 19.972697 3.4800681"/>
      <polygon class="cls-3" points="33.3228072 56.8457035 33.3228072 33.5200943 13.3241083 33.5200943 13.3241083 10.1685623 0 23.5116679 0 56.8457035 33.3228072 56.8457035"/>
    </g>
  </g>
</svg>