<?xml version="1.0" encoding="UTF-8"?>
<svg id="_レイヤー_2" data-name="レイヤー 2" xmlns="http://www.w3.org/2000/svg" viewBox="0 0 49.0732422 9.5532227">
  <defs>
    <style>
      .cls-1 {
        fill: #fff;
        stroke-width: 0px;
      }
    </style>
  </defs>
  <g id="_レイヤー_1-2" data-name="レイヤー 1">
    <g>
      <path class="cls-1" d="m3.2783203,0c1.1904297,0,1.9326172.3925781,2.3808594.8125.3925781.378418.8125,1.0507812.8125,2.0874023,0,.5883789-.1259766,1.3164062-.7285156,1.9047852-.3222656.3081055-.7841797.5883789-1.3027344.7143555l2.8720703,3.8242188h-2.6337891l-2.5214844-3.684082v3.684082H0V0h3.2783203Zm-1.1210938,4.2446289h.4902344c.3925781,0,.9248047-.0419922,1.2890625-.40625.1533203-.1542969.3496094-.4482422.3496094-.9106445,0-.5322266-.2519531-.8125-.4335938-.9526367-.3505859-.2661133-.9111328-.2939453-1.1914062-.2939453h-.5039062v2.5634766Z"/>
      <path class="cls-1" d="m14.6611328,6.5698242h-4.6640625c0,.3359375.1259766.7841797.3779297,1.0644531.3085938.3364258.7285156.3920898,1.0371094.3920898.2939453,0,.6015625-.0556641.8125-.1821289.0273438-.0136719.265625-.1679688.4335938-.5180664l1.9052734.1962891c-.2802734.8823242-.8408203,1.3447266-1.2050781,1.5688477-.6015625.3642578-1.2744141.4619141-1.9746094.4619141-.9384766,0-1.7646484-.1679688-2.4931641-.8964844-.546875-.5458984-.9384766-1.3725586-.9384766-2.4091797,0-.8964844.3222656-1.8208008.9521484-2.465332.7568359-.7563477,1.6953125-.8964844,2.3955078-.8964844s1.7089844.1259766,2.4794922.9384766c.7421875.784668.8818359,1.7651367.8818359,2.5356445v.2099609Zm-1.8623047-1.2045898c-.0146484-.0561523-.1123047-.4482422-.40625-.7285156-.2246094-.2099609-.546875-.3500977-.953125-.3500977-.5175781,0-.8261719.2099609-1.0224609.40625-.1542969.1679688-.2939453.3920898-.3496094.6723633h2.7314453Z"/>
      <path class="cls-1" d="m19.7421875,4.6928711c-.3076172-.1821289-.7138672-.3500977-1.1064453-.3500977-.2099609,0-.4482422.0556641-.5742188.1821289-.0703125.0698242-.1259766.1816406-.1259766.2797852,0,.1401367.0976562.2241211.1962891.2802734.1396484.0839844.3496094.1259766.6015625.2099609l.5322266.168457c.3505859.1118164.7148438.2519531,1.0371094.5458984.3642578.3364258.4902344.7143555.4902344,1.190918,0,.8261719-.3642578,1.3588867-.6445312,1.6386719-.6162109.6166992-1.3730469.7143555-2.03125.7143555-.8398438,0-1.7509766-.1821289-2.5634766-.8964844l.8544922-1.3583984c.1962891.1679688.4765625.3642578.6865234.4619141.2802734.1401367.5742188.1962891.8408203.1962891.1259766,0,.4482422,0,.6298828-.1401367.1259766-.0981445.2099609-.2519531.2099609-.40625,0-.1118164-.0419922-.2519531-.2236328-.3642578-.140625-.0839844-.3222656-.1401367-.6162109-.2241211l-.5048828-.1538086c-.3642578-.1123047-.7421875-.3081055-1.0078125-.574707-.2949219-.3081055-.4482422-.6582031-.4482422-1.1342773,0-.6025391.2373047-1.1069336.6015625-1.4428711.5605469-.5180664,1.3173828-.6303711,1.8916016-.6303711.9238281,0,1.5683594.2382812,2.0732422.5322266l-.7988281,1.2749023Z"/>
      <path class="cls-1" d="m28.3955078,6.5698242h-4.6640625c0,.3359375.1259766.7841797.3779297,1.0644531.3085938.3364258.7285156.3920898,1.0371094.3920898.2939453,0,.6015625-.0556641.8125-.1821289.0273438-.0136719.265625-.1679688.4335938-.5180664l1.9052734.1962891c-.2802734.8823242-.8408203,1.3447266-1.2050781,1.5688477-.6015625.3642578-1.2744141.4619141-1.9746094.4619141-.9384766,0-1.7646484-.1679688-2.4931641-.8964844-.546875-.5458984-.9384766-1.3725586-.9384766-2.4091797,0-.8964844.3222656-1.8208008.9521484-2.465332.7568359-.7563477,1.6953125-.8964844,2.3955078-.8964844s1.7089844.1259766,2.4794922.9384766c.7421875.784668.8818359,1.7651367.8818359,2.5356445v.2099609Zm-1.8623047-1.2045898c-.0146484-.0561523-.1123047-.4482422-.40625-.7285156-.2246094-.2099609-.546875-.3500977-.953125-.3500977-.5175781,0-.8261719.2099609-1.0224609.40625-.1542969.1679688-.2939453.3920898-.3496094.6723633h2.7314453Z"/>
      <path class="cls-1" d="m29.6523438,3.0957031h2.0175781v.980957c.1816406-.3505859.4619141-.6728516.7841797-.8686523.3359375-.2099609.6865234-.2661133,1.078125-.2661133.2529297,0,.4345703.027832.6591797.0981445l-.1123047,1.890625c-.2666016-.1396484-.5605469-.2241211-.9101562-.2241211-.4345703,0-.7568359.1542969-1.0087891.4204102-.4482422.4760742-.4902344,1.1484375-.4902344,1.6811523v2.5351562h-2.0175781V3.0957031Z"/>
      <path class="cls-1" d="m36.4853516,3.0957031l1.5830078,3.3481445,1.5830078-3.3481445h2.2128906l-3.1660156,6.2475586h-1.2607422l-3.1650391-6.2475586h2.2128906Z"/>
      <path class="cls-1" d="m49.0732422,6.5698242h-4.6640625c0,.3359375.1259766.7841797.3779297,1.0644531.3085938.3364258.7285156.3920898,1.0371094.3920898.2939453,0,.6015625-.0556641.8125-.1821289.0273438-.0136719.265625-.1679688.4335938-.5180664l1.9052734.1962891c-.2802734.8823242-.8408203,1.3447266-1.2050781,1.5688477-.6015625.3642578-1.2744141.4619141-1.9746094.4619141-.9384766,0-1.7646484-.1679688-2.4931641-.8964844-.546875-.5458984-.9384766-1.3725586-.9384766-2.4091797,0-.8964844.3222656-1.8208008.9521484-2.465332.7568359-.7563477,1.6953125-.8964844,2.3955078-.8964844s1.7089844.1259766,2.4794922.9384766c.7421875.784668.8818359,1.7651367.8818359,2.5356445v.2099609Zm-1.8623047-1.2045898c-.0146484-.0561523-.1123047-.4482422-.40625-.7285156-.2246094-.2099609-.546875-.3500977-.953125-.3500977-.5175781,0-.8261719.2099609-1.0224609.40625-.1542969.1679688-.2939453.3920898-.3496094.6723633h2.7314453Z"/>
    </g>
  </g>
</svg>