<?xml version="1.0" encoding="UTF-8"?>
<svg id="_レイヤー_2" data-name="レイヤー 2" xmlns="http://www.w3.org/2000/svg" viewBox="0 0 226.759515 93.6126816">
  <defs>
    <style>
      .cls-1 {
        fill: #514e4e;
        stroke-width: 0px;
      }
    </style>
  </defs>
  <g id="_レイヤー_1-2" data-name="レイヤー 1">
    <g>
      <path class="cls-1" d="m76.931122,85.4035621c-.4287109,1.7685547-1.1552734,3.2929688-2.1806641,4.5732422-1.0253906,1.2807617-2.3085938,2.2851562-3.8486328,3.0146484l-.1503906-.2050781c1.5493164-.8569336,2.8320312-2.1396484,3.8486328-3.8486328,1.0161133-1.7089844,1.6289062-3.7529297,1.8388672-6.1318359v-1.0390625h-1.0390625c-.6015625.0092773-1.2260742.0732422-1.8730469.1914062l-.3554688-.7109375c.5102539.0546875,1.1298828.0913086,1.859375.109375h1.1347656l.5605469-.9023438,1.4902344,1.1484375c-.2099609.2646484-.6655273.4238281-1.3671875.4785156l.0136719.6835938c.2368164,2.2241211.8818359,4.1269531,1.9345703,5.7080078,1.0527344,1.581543,2.5039062,2.7685547,4.3544922,3.5615234l-.0410156.1777344c-.4375.0087891-.7568359.2734375-.9570312.7929688-1.2304688-.7109375-2.3378906-1.7338867-3.3222656-3.0693359-.984375-1.3349609-1.6181641-2.8457031-1.9003906-4.5322266Z"/>
      <path class="cls-1" d="m89.0854189,81.0559058l.1914062-.2871094c.0180664-.0180664.0410156-.0454102.0683594-.0820312.0273438-.0361328.0478516-.0634766.0615234-.0820312.0136719-.0180664.0317383-.0410156.0546875-.0683594.0224609-.0273438.0454102-.0454102.0683594-.0546875.0224609-.0087891.0429688-.0136719.0615234-.0136719.0908203,0,.2709961.1230469.5400391.3691406.2685547.2460938.4033203.4194336.4033203.5195312-.109375.1279297-.269043.2099609-.4785156.2460938v1.2714844c.0273438,1.0576172.059082,1.8730469.0957031,2.4472656-.0546875.0732422-.1733398.1484375-.3554688.2255859-.1826172.0776367-.3417969.1162109-.4785156.1162109h-.109375v-.6289062h-2.8300781v4.2109375c.0180664,1.1577148.0546875,2.2558594.109375,3.2949219-.1640625.2915039-.4287109.4375-.7929688.4375-.0820312,0-.1572266-.0297852-.2255921-.0888672-.0683532-.0595703-.1025329-.1254883-.1025329-.1982422.0908203-1.3759766.1455078-2.5883789.1640625-3.6367188v-5.6464844c0-1.1118164-.0639648-2.0644531-.1914062-2.8574219l1.1074219.5058594h2.6386719Zm.1230469,1.7636719v-1.3398438h-2.8300781v1.3398438h2.8300781Zm-2.8300781.4101562v1.4082031h2.8300781v-1.4082031h-2.8300781Zm2.8710938,7.7109375v.5878906c0,.0458984-.0751953.1074219-.2255859.1845703-.1503906.0776367-.3076172.1162109-.4716797.1162109-.1459961,0-.21875-.0957031-.21875-.2871094.0361328-.4462891.0634766-.9887695.0820312-1.6269531v-.9707031c0-1.1210938-.0639648-2.078125-.1914062-2.8710938l1.0800781.5058594h3.1035156l.1914062-.2734375c.0180664-.0180664.0361328-.0385742.0546875-.0615234.0180664-.0224609.0341797-.0429688.0478516-.0615234.0136719-.0180664.0273438-.0361328.0410156-.0546875.0136719-.0180664.0273438-.0317383.0410156-.0410156.0136719-.0087891.0292969-.0180664.0478516-.0273438.0180664-.0087891.0361328-.0136719.0546875-.0136719.0908203,0,.2753906.1074219.5537109.3212891.277832.2143555.4169922.371582.4169922.4716797-.109375.1367188-.2734375.2280273-.4921875.2734375v1.421875c.0273438,1.2124023.059082,2.1376953.0957031,2.7753906-.0546875.0820312-.1733398.1689453-.3554688.2597656-.1826172.0913086-.3374023.1367188-.4648438.1367188-.1186523,0-.1777344-.0957031-.1777344-.2871094l.0546875-.21875v-.2597656h-3.2675781Zm3.2675781-2.4472656v-1.5175781h-3.2675781v1.5175781h3.2675781Zm-3.2675781.4238281v1.6132812h3.2675781v-1.6132812h-3.2675781Zm3.2539062-3.8828125v.3144531c0,.0458984-.0820312.1025391-.2460938.1708984s-.3330078.1025391-.5058594.1025391c-.0546875,0-.1005859-.0273438-.1367188-.0820312-.0366211-.0546875-.0546875-.1181641-.0546875-.1914062.0273438-.3554688.0546875-.8154297.0820312-1.3808594v-.8339844c0-1.0664062-.050293-1.9140625-.1503906-2.5429688l1.0664062.4648438h2.7480469l.1914062-.2734375c.0180664-.0273438.0478516-.0703125.0888672-.1298828.0410156-.059082.0751953-.1025391.1025391-.1298828s.059082-.0410156.0957031-.0410156c.0908203,0,.2958984.1230469.6152344.3691406.3188477.2460938.4785156.4194336.4785156.5195312-.1005859.1279297-.2963867.2236328-.5878906.2871094v9.9804688c0,.4189453-.0888672.7333984-.2666016.9433594-.1777344.2094727-.5585938.3461914-1.1416016.4101562-.0273438-.328125-.1186523-.5561523-.2734375-.6835938-.21875-.1552734-.6064453-.2783203-1.1621094-.3691406v-.21875c.9023438.0732422,1.4536133.109375,1.6542969.109375.2275391,0,.3417969-.1044922.3417969-.3144531v-6.4804688h-2.9394531Zm2.9394531-2.2148438v-1.3398438h-2.9394531v1.3398438h2.9394531Zm-2.9394531.4101562v1.4082031h2.9394531v-1.4082031h-2.9394531Z"/>
      <path class="cls-1" d="m109.196747,83.7355933l.3007812-.4238281c.2001953-.2734375.3325195-.4101562.3964844-.4101562.0908203,0,.3076172.1435547.6494141.4306641s.5126953.480957.5126953.5810547c-.0458984.1552734-.1640625.2324219-.3554688.2324219h-3.6640625c.2822266,3.5458984,1.2075195,5.9428711,2.7753906,7.1914062.0727539.0732422.1318359.1162109.1777344.1298828.0454102.0136719.0864258.0068359.1230469-.0205078.0361328-.0273438.0727539-.0864258.109375-.1777344.2094727-.4008789.4008789-.9248047.5742188-1.5722656l.1777344.0273438-.2324219,2.1328125c.328125.4555664.4238281.7700195.2871094.9433594-.109375.1455078-.2646484.2026367-.4648438.1708984-.2006836-.0322266-.4033203-.109375-.6083984-.2324219s-.4125977-.2758789-.6220703-.4580078c-1.7592773-1.5219727-2.8300781-4.2333984-3.2128906-8.1347656h-4.9492188c-.6748047.0092773-1.3764648.0732422-2.1054688.1914062l-.3691406-.7109375c.5102539.0546875,1.1347656.0913086,1.8730469.109375h5.5234375c-.0820312-1.1210938-.1230469-2.296875-.1230469-3.5273438.8657227.0639648,1.2988281.159668,1.2988281.2871094,0,.0366211-.0410156.0820312-.1230469.1367188l-.2460938.1503906c-.0092773.8935547.0224609,1.8779297.0957031,2.953125h2.2011719Zm-4.6347656,3.5136719l.2734375-.4101562c.0180664-.0273438.0429688-.065918.0751953-.1162109.0317383-.0498047.0566406-.0864258.0751953-.109375.0180664-.0224609.0410156-.0498047.0683594-.0820312.0273438-.0317383.0522461-.0546875.0751953-.0683594.0224609-.0136719.0429688-.0205078.0615234-.0205078.0908203,0,.284668.1391602.5810547.4169922.2958984.2783203.4443359.4672852.4443359.5673828-.0458984.1552734-.159668.2324219-.3417969.2324219h-2.4882812v3.2402344c.6469727-.1181641,1.6630859-.3232422,3.0488281-.6152344l.0410156.2460938c-1.8686523.6289062-4.1245117,1.3037109-6.7675781,2.0234375-.0732422.1728516-.1777344.2822266-.3144531.328125l-.6152344-1.1210938c.0361328-.0087891.496582-.0864258,1.3808594-.2324219v-2.7617188c0-1.1757812-.0595703-2.1235352-.1777344-2.84375.8837891.2646484,1.3212891.4560547,1.3125.5742188,0,.0366211-.0322266.0776367-.0957031.1230469l-.2050781.1230469v4.6347656c.1640625-.0361328.4213867-.0864258.7724609-.1503906.3505859-.0634766.6083984-.1137695.7724609-.1503906v-3.7597656c0-1.1757812-.0595703-2.1328125-.1777344-2.8710938.9023438.2553711,1.3535156.4467773,1.3535156.5742188,0,.0458984-.0366211.0913086-.109375.1367188l-.21875.1503906v1.9414062h1.1757812Zm-.8886719-5.7011719l.2597656-.3828125c.0273438-.0273438.0566406-.0634766.0888672-.109375.0317383-.0454102.059082-.0839844.0820312-.1162109.0224609-.0317383.0478516-.0634766.0751953-.0957031.0273438-.0317383.0522461-.0546875.0751953-.0683594.0224609-.0136719.0429688-.0205078.0615234-.0205078.0908203,0,.2915039.1391602.6015625.4169922.3095703.2783203.4648438.4672852.4648438.5673828-.0366211.1459961-.159668.21875-.3691406.21875h-2.5566406c-.6748047.0092773-1.3764648.0732422-2.1054688.1914062l-.3554688-.7109375c.5102539.0546875,1.1298828.0913086,1.859375.109375h1.8183594Zm3.9921875-.6835938l.0957031-.1230469c1.1118164.1367188,1.8271484.4833984,2.1464844,1.0390625.1728516.3007812.1777344.546875.0136719.7382812-.1552734.1640625-.3554688.1777344-.6015625.0410156-.1186523-.2822266-.3398438-.5830078-.6630859-.9023438-.3237305-.3188477-.6542969-.5830078-.9912109-.7929688Z"/>
      <path class="cls-1" d="m123.6615908,83.8176246l.2460938-.3554688c.0273438-.0273438.065918-.0820312.1162109-.1640625.0498047-.0820312.0908203-.1386719.1230469-.1708984.0317383-.0317383.065918-.0478516.1025391-.0478516.0908203,0,.2802734.1298828.5673828.3896484s.4306641.4399414.4306641.5400391c-.0458984.1552734-.159668.2324219-.3417969.2324219h-3.3359375c.0454102,1.7138672.2275391,3.1401367.546875,4.2792969.1547852-.3095703.2641602-.546875.328125-.7109375.1728516-.4189453.3164062-.8999023.4306641-1.4423828.1137695-.5419922.1708984-1.0092773.1708984-1.4013672.9111328.2646484,1.3671875.4560547,1.3671875.5742188,0,.0366211-.0458984.0732422-.1367188.109375l-.2460938.0957031c-.3740234,1.4677734-.8935547,2.7255859-1.5585938,3.7734375.3735352.8388672.8657227,1.4995117,1.4765625,1.9824219.0634766.0639648.1137695.1025391.1503906.1162109.0361328.0136719.0727539.0068359.109375-.0205078.0361328-.0273438.0727539-.0820312.109375-.1640625.1640625-.3642578.3232422-.8291016.4785156-1.3945312l.1640625.0273438-.1640625,1.859375c.2734375.3828125.3598633.6513672.2597656.8066406-.0820312.1367188-.2119212.1982422-.3896484.1845703-.1777344-.0136719-.3623047-.0683594-.5537109-.1640625s-.378418-.2167969-.5605469-.3623047c-.6289062-.5195312-1.1713867-1.2167969-1.6269531-2.0917969-.8935547,1.1577148-2.0234375,2.0458984-3.390625,2.6660156l-.1503906-.2050781c.765625-.4833984,1.4355469-1.0253906,2.0097656-1.6269531h-4.0605469v.65625c0,.0273438-.0253906.0615234-.0751953.1025391-.050293.0410156-.1298828.0820312-.2392578.1230469s-.2236328.0615234-.3417969.0615234c-.0639648,0-.1210938-.0297852-.1708984-.0888672-.050293-.0595703-.0751953-.1206055-.0751953-.1845703.0634766-.8017578.1044922-1.6904297.1230469-2.6660156v-1.4628906c0-1.1757812-.0595703-2.1328125-.1777344-2.8710938l1.1074219.5058594h2.6523438l.21875-.328125c.0180664-.0180664.0522461-.0634766.1025391-.1367188.0498047-.0727539.0888672-.1206055.1162109-.1435547.0273438-.0224609.059082-.0341797.0957031-.0341797.0908203,0,.2617188.1118164.5126953.3349609.2504883.2236328.3759766.3852539.3759766.4853516-.0366211.1459961-.1552734.21875-.3554688.21875h-1.8730469v1.2851562h.9160156l.1777344-.2324219c.1274414-.1455078.21875-.21875.2734375-.21875.0908203,0,.2641602.0957031.5195312.2871094.2548828.1914062.3828125.3374023.3828125.4375-.0913086.1186523-.2553711.2006836-.4921875.2460938v.6289062c.0273438.7202148.0454102,1.1074219.0546875,1.1621094-.0366211.0732422-.1298828.1459961-.2802734.21875-.1503906.0732422-.2895508.109375-.4169922.109375h-.0957031v-.4921875h-1.0390625v1.5859375h.9296875l.4921875-.6699219c.3554688.2827148.6513672.5424805.8886719.7792969.3828125-.4282227.7016602-.8657227.9570312-1.3125-.5107422-1.4033203-.8115234-3.1625977-.9023438-5.2773438h-5.8378906v1.9550781c0,.6108398-.0185547,1.1577148-.0546875,1.640625-.0366211.4833984-.1162109,1.0483398-.2392578,1.6953125-.1230469.6474609-.328125,1.2602539-.6152344,1.8388672s-.6542969,1.1005859-1.1005859,1.5654297l-.1777344-.1777344c.5556641-.8930664.9204102-1.8681641,1.09375-2.9257812.1728516-1.0571289.2597656-2.2646484.2597656-3.6230469v-1.421875c0-.5102539-.0322266-1.0117188-.0957031-1.5039062l1.09375.5332031h5.6601562c-.0092773-.0820312-.0136719-.2138672-.0136719-.3964844,0-.1821289-.0048828-.3144531-.0136719-.3964844-.0820312.0273438-.1870117.0410156-.3144531.0410156h-.1503906v-1.09375h-2.625v.3144531c.0087891.0820312.015625.159668.0205078.2324219.0043945.0732422.0068359.1279297.0068359.1640625,0,.0366211.0043945.0732422.0136719.109375-.0185547.0820312-.1049805.1552734-.2597656.21875-.1552734.0639648-.3237305.0957031-.5058594.0957031-.1186523,0-.1777344-.0957031-.1777344-.2871094l.0546875-.4648438v-.3828125h-1.640625c-.65625.0092773-1.3535156.0732422-2.0917969.1914062l-.328125-.7109375c.5102539.0546875,1.1298828.0913086,1.859375.109375h2.2011719c0-.5649414-.0273438-1.0615234-.0820312-1.4902344.8564453.2553711,1.2851562.4467773,1.2851562.5742188,0,.0366211-.0410156.0820312-.1230469.1367188l-.2324219.1503906v.6289062h2.625c0-.5649414-.0273438-1.0615234-.0820312-1.4902344.8657227.2553711,1.2988281.4467773,1.2988281.5742188,0,.0458984-.0366211.0913086-.109375.1367188l-.2324219.1503906v.6289062h2.2148438l.2871094-.3964844c.0273438-.0273438.0566406-.0634766.0888672-.109375.0317383-.0454102.059082-.0839844.0820312-.1162109.0224609-.0317383.0478516-.0634766.0751953-.0957031.0273438-.0317383.0522461-.0546875.0751953-.0683594.0224609-.0136719.0429688-.0205078.0615234-.0205078.0908203,0,.2939453.1416016.6083984.4238281.3144531.2827148.4716797.4741211.4716797.5742188-.0273438.1459961-.1367188.21875-.328125.21875h-3.6367188v.6289062c.546875.1914062.8203125.3466797.8203125.4648438,0,.0458984-.0410156.0957031-.1230469.1503906l-.2050781.1503906v.4511719h2.1054688Zm-6.0976562,3.171875v-1.2851562h-1.2304688v1.2851562h1.2304688Zm1.8046875,1.7636719v-1.3535156h-3.0351562v1.3535156h3.0351562Zm-1.8046875.3828125h-1.2304688v1.5859375h1.2304688v-1.5859375Zm4.3886719-6.9179688l.1503906-.109375c.8017578.1552734,1.2802734.4467773,1.4355469.875.0908203.2553711.0454102.4467773-.1367188.5742188-.1459961.1005859-.3100586.0869141-.4921875-.0410156-.0639648-.21875-.1870117-.4487305-.3691406-.6904297-.1826172-.2412109-.378418-.4443359-.5878906-.6083984Z"/>
      <path class="cls-1" d="m129.4721377,92.9914527c-.0366211-.3100586-.1210938-.5219727-.2529369-.6357422-.132317-.1142578-.3852467-.1982422-.7587818-.2529297v-.21875c.5922852.0546875.9614258.0820312,1.1074219.0820312.1640625,0,.2460938-.0864258.2460938-.2597656v-2.734375h-1.4492188c-.1640625,1.7319336-.6699219,3.0576172-1.5175781,3.9785156l-.1914062-.1503906c.4189453-.765625.6904297-1.6176758.8134694-2.5566406.1230541-.9384766.1845775-2.0688477.1845775-3.390625v-1.9003906c0-.765625-.0410156-1.421875-.1230469-1.96875l1.0664062.5058594h1.0800781l.1914062-.2734375c.0180664-.0180664.0429688-.0498047.0751953-.0957031.0317383-.0454102.0546875-.0771484.0683594-.0957031.0136719-.0180664.0341797-.0361328.0615234-.0546875.0273438-.0180664.0546875-.0273438.0820312-.0273438.0908203,0,.2890625.1162109.5947266.3486328.3051758.2324219.4580078.3989258.4580078.4990234-.1459961.1459961-.3466797.2373047-.6015625.2734375v5.4277344c.8110352-.5742188,1.5039062-1.2939453,2.078125-2.1601562h-.5742188c-.2734375.0092773-.5927734.0776367-.9570312.2050781l-.3691406-.7246094c.4008789.0546875.8886719.0913086,1.4628906.109375h.6699219c.3007812-.546875.5146484-.9931641.6425781-1.3398438h-.7109375c-.3740234.0092773-.8022461.0776367-1.2851562.2050781l-.3554688-.7109375c.5649414.0732422,1.1347656.1142578,1.7089844.1230469h.7929688c.2460938-.7470703.4238281-1.480957.5332031-2.2011719l.0820312.0136719v-1.0527344h-2.9257812v.3007812c.0087891.0820312.015625.159668.0205078.2324219.0043945.0732422.0068359.1298828.0068359.1708984s.0043945.0800781.0136719.1162109c-.0185547.0820312-.1005859.1552734-.2460938.21875-.1459961.0639648-.3100586.0957031-.4921875.0957031-.1279297,0-.1914062-.0957031-.1914062-.2871094l.0546875-.4648438v-.3828125h-1.4902344c-.65625.0092773-1.3535156.0732422-2.0917969.1914062l-.328125-.7109375c.5102539.0546875,1.1298828.0913086,1.859375.109375h2.0507812c0-.5742188-.0273438-1.0708008-.0820312-1.4902344.8564453.2553711,1.2851562.4467773,1.2851562.5742188,0,.0366211-.0410156.0820312-.1230469.1367188l-.2460938.1503906v.6289062h2.9257812c0-.5742188-.0273438-1.0708008-.0820312-1.4902344.8657227.2553711,1.2988281.4467773,1.2988281.5742188,0,.0458984-.0410156.0913086-.1230469.1367188l-.2324219.1503906v.6289062h2.0917969l.2871094-.3964844c.0273438-.0273438.0566406-.0634766.0888672-.109375.0317383-.0454102.059082-.0839844.0820312-.1162109.0224609-.0317383.0478516-.0634766.0751953-.0957031.0273438-.0317383.0522461-.0546875.0751953-.0683594.0224609-.0136719.0429688-.0205078.0615234-.0205078.0908203,0,.2939453.1416016.6083984.4238281.3144531.2827148.4716797.4741211.4716797.5742188-.0273438.1459961-.1367188.21875-.328125.21875h-3.5136719v.8339844c0,.0273438-.0273438.0615234-.0820312.1025391s-.1347656.0776367-.2392578.109375c-.1049805.0322266-.2211914.0527344-.3486328.0615234.6015625.1005859.9023438.2050781.9023438.3144531,0,.0458984-.0458984.0913086-.1367188.1367188l-.2324219.109375c-.1459961.6108398-.3056641,1.1347656-.4785156,1.5722656h2.4335938l.2460938-.3417969c.0180664-.0180664.0566406-.0683594.1162109-.1503906.059082-.0820312.1044922-.1367188.1367188-.1640625.0317383-.0273438.065918-.0410156.1025391-.0410156.0908203,0,.2802734.1210938.5673828.3623047.2871094.2416992.4306641.4125977.4306641.5126953-.0366211.1367188-.1552734.2050781-.3554688.2050781h-2.734375c.2275391.4560547.5375977.9023438.9296875,1.3398438h.9023438l.2460938-.3417969c.0180664-.0180664.0566406-.0683594.1162109-.1503906.059082-.0820312.1044922-.1367188.1367188-.1640625.0317383-.0273438.065918-.0410156.1025391-.0410156.0908203,0,.2871094.1230469.5878906.3691406s.4511719.4194336.4511719.5195312c-.0366211.1459961-.1503906.21875-.3417969.21875h-1.8046875c.6743164.6015625,1.4492188,1.0664062,2.3242188,1.3945312l-.0136719.1503906c-.328125.0366211-.5561523.2597656-.6835938.6699219-1.0209961-.5283203-1.8276367-1.2666016-2.4199219-2.2148438h-2.5703125c-.328125.4648438-.6928711.8886719-1.09375,1.2714844.6743164.2734375,1.0527344.6289062,1.1347656,1.0664062.0454102.2734375-.0273438.4648438-.21875.5742188-.1733398.0913086-.3466797.050293-.5195312-.1230469-.0092773-.4375-.1914062-.8974609-.546875-1.3808594-.4833984.4194336-1.0209961.765625-1.6132812,1.0390625l-.0136719-.0136719v2.0234375c0,.3828125-.0708008.6650391-.2119141.8476562-.1416016.1821289-.4492188.3007812-.9228516.3554688Zm-1.0390625-6.6171875v.4648438c0,.7475586-.0136719,1.3217773-.0410156,1.7226562h1.421875v-2.1875h-1.3808594Zm1.3808594-.4101562v-2.078125h-1.3808594v2.078125h1.3808594Zm1.96875,6.4394531c-.2006836-.3100586-.4057617-.6240234-.6152344-.9433594.6376953-.1914062,1.6176758-.5556641,2.9394531-1.09375l.0683594.1914062c-.6289062.4648438-1.3491211.9707031-2.1601562,1.5175781-.0185547.1914062-.0957031.3007812-.2324219.328125Zm.0273438-9.2285156l.1503906-.0820312c.7470703.328125,1.1757812.7338867,1.2851562,1.2167969.0634766.3007812-.0092773.5107422-.21875.6289062-.1733398.1005859-.3510742.0639648-.5332031-.109375-.0092773-.2548828-.0820312-.5400391-.21875-.8544922s-.2919922-.5810547-.4648438-.7998047Zm4.0605469,7.1777344c1.1025391.3007812,1.809082.7382812,2.1191406,1.3125.1640625.3188477.1591797.5512695-.0136719.6972656-.1186523.1000977-.2783203.109375-.4785156.0273438-.2099609-.328125-.5449219-.6743164-1.0048828-1.0390625-.4604492-.3642578-.9321289-.6787109-1.4150391-.9433594v1.4082031c0,.3828125-.0683594.6606445-.2050781.8339844-.1367188.1728516-.4375.2871094-.9023438.3417969-.0366211-.2646484-.109375-.4511719-.21875-.5605469-.1914062-.1367188-.4648438-.2280273-.8203125-.2734375v-.21875c.6196289.0546875.9980469.0820312,1.1347656.0820312.1547852,0,.2324219-.0820312.2324219-.2460938v-2.1328125c0-.8930664-.0458984-1.6269531-.1367188-2.2011719.8291016.2553711,1.2441406.4511719,1.2441406.5878906,0,.0366211-.0366211.0776367-.109375.1230469l-.21875.1230469v1.9003906c.1274414.0185547.3188477.0546875.5742188.109375.3461914-.6469727.5830078-1.3032227.7109375-1.96875.7016602.3740234,1.0527344.6152344,1.0527344.7246094,0,.0366211-.0366211.0639648-.109375.0820312l-.2324219.0410156c-.3100586.3740234-.7109375.7705078-1.203125,1.1894531Zm-.0820312-3.4316406c-.2280273-.4375-.4194336-.8837891-.5742188-1.3398438h-.7792969c-.1367188.3374023-.3647461.7841797-.6835938,1.3398438h2.0371094Zm1.3945312-3.6230469c.3642578.1005859.5332031.1962891.5058594.2871094-.0092773.0458984-.0595703.0820312-.1503906.109375l-.2597656.0820312c-.4375.5742188-.8613281,1.034668-1.2714844,1.3808594l-.2050781-.1367188c.3188477-.6015625.5512695-1.2895508.6972656-2.0644531l.6835938.3417969Z"/>
      <path class="cls-1" d="m140.696747,83.6262183l.1367188-.1367188c1.0844727.1367188,1.7680664.4833984,2.0507812,1.0390625.1728516.3193359.1591797.5742188-.0410156.765625-.1552734.1640625-.3603516.1733398-.6152344.0273438-.1005859-.2915039-.2988281-.5947266-.5947266-.9091797-.2963867-.3144531-.6083984-.5761719-.9365234-.7861328Zm.2324219,5.3046875h.6289062c.0820312,0,.1435547-.015625.1845703-.0478516.0410156-.0317383.0976562-.1162109.1708984-.2529297.328125-.65625,1.3125-2.6704102,2.953125-6.0429688l.2460938.0820312c-1.4492188,3.6459961-2.1875,5.519043-2.2148438,5.6191406-.1552734.4467773-.2324219.8525391-.2324219,1.2167969,0,.1367188.059082.4580078.1777344.9638672.1181641.5058594.168457.9731445.1503906,1.4013672-.0273438.6376953-.2783203.9570312-.7519531.9570312-.2553711,0-.3964844-.2373047-.4238281-.7109375.0908203-.7109375.1181641-1.3125.0820312-1.8046875-.0366211-.4921875-.1279297-.7880859-.2734375-.8886719-.1640625-.109375-.3964844-.1777344-.6972656-.2050781v-.2871094Zm.8613281-8.4628906l.1230469-.1367188c1.0844727.1733398,1.7817383.546875,2.0917969,1.1210938.1821289.3374023.1777344.6152344-.0136719.8339844-.1552734.1826172-.3691406.1962891-.6425781.0410156-.109375-.3095703-.3168945-.6425781-.6220703-.9980469-.3056641-.3554688-.6176758-.6425781-.9365234-.8613281Zm9.1601562.7519531l.21875-.328125c.1728516-.2094727.2871094-.3144531.3417969-.3144531.0908203,0,.284668.1323242.5810547.3964844.2958984.2646484.4443359.4467773.4443359.546875-.1005859.1367188-.2963867.2324219-.5878906.2871094v1.6132812c.0180664,1.1210938.0546875,2.1738281.109375,3.1582031-.0639648.0913086-.1845703.1777344-.3623047.2597656s-.3398438.1230469-.4853516.1230469c-.1186523,0-.1777344-.0957031-.1777344-.2871094l.0546875-.328125v-.3007812h-1.9960938c.2822266,1.4130859.7792969,2.6367188,1.4902344,3.6708984.7109375,1.034668,1.5947266,1.8344727,2.6523438,2.3994141l-.0410156.1367188c-.4013672.0273438-.6884766.2597656-.8613281.6972656-1.8779297-1.3759766-3.0581055-3.6777344-3.5410156-6.9042969h-2.296875c-.0366211.9023438-.1298828,1.7207031-.2802734,2.4541016-.1503906.7338867-.4467773,1.5131836-.8886719,2.3378906-.4423828.8251953-1.0234375,1.5332031-1.7431641,2.1259766l-.1914062-.1640625c.9023438-1.0390625,1.5107422-2.203125,1.8251953-3.4931641.3144531-1.2895508.4716797-2.7685547.4716797-4.4365234v-2.078125c0-.8383789-.0410156-1.5493164-.1230469-2.1328125l1.1484375.5605469h4.2382812Zm-4.4433594,4.4023438h4.5800781v-4.0058594h-4.5664062v3.2402344c0,.3374023-.0048828.5927734-.0136719.765625Z"/>
    </g>
    <g>
      <path class="cls-1" d="m28.1013688,46.084379h4.552956c1.4894872,0,3.3747988.2558668,3.3747988,1.9875425v15.5920885s-5.1127865,1.8523803-14.3744718,1.8523803c-9.2510693,0-21.6546517-5.0174592-21.6546517-18.923311,0-13.8601675,12.9122829-19.2976868,22.4722989-19.2976868,4.2834401,0,9.6616261.2550002,9.6616261,2.6288635v4.64395c-3.6358652-2.9207242-5.1010873-3.4391445-10.6198809-3.4391445-5.5168438,0-15.3868898,3.576719-15.3868898,15.138143,0,11.5753481,13.2476613,18.4503873,24.2443012,14.1004349v-8.8639397c0-1.857551-.107893-5.4193209-2.2700868-5.4193209Z"/>
      <path class="cls-1" d="m97.3296987,64.5886837h11.7022711c-3.2413406-1.1881233-4.5689882-5.0122596-5.630153-7.7997128-1.0979957-2.7770539-9.5600158-23.0035307-10.5098211-25.8078829-.9342063-2.7642714-2.286119-2.7642714-3.3557332-2.7642714h-6.7290153c3.2432905,1.0598649,1.4756273,3.3163024.9435224,4.887251-.5372986,1.6017132-11.8450515,29.1075031-11.8450515,29.1075031-3.9088475-1.0505488-13.7026262-15.2229124-13.7026262-15.2229124,13.0604677-3.7025943,11.0325987-18.7718416-1.7210889-18.7718416h-14.6589368c2.9451765.639992,2.678477,3.7056273,2.678477,6.068008v25.0281499c0,3.4402278-1.0800136,4.3510356-2.8043523,5.2757092h10.7299405c-2.9451765-1.3139985-2.1654435-4.3627348-2.1654435-5.7982755v-26.997956h5.7982756c3.0836176,0,5.3675701,3.7088771,5.3675701,6.2328807,0,4.0739368-3.2244418,5.6723711-6.4519167,6.8687563-3.2181589,1.1753407-1.4725882,3.8254362,0,5.9579485,1.5063861,2.1084638,5.7950258,8.0568508,8.3454611,10.9660916,2.5642956,2.8994627,4.813367,2.7705544,6.0573866,2.7705544h9.6828579c-3.7543684-1.1881233-1.7561866-4.0897525-1.2325312-5.5326593.5375095-1.4875372,2.9768078-7.6888157,2.9768078-7.6888157h14.4992575s1.7529368,4.488639,3.3641827,8.4661654c1.6183955,3.984026.4070904,4.499226-1.3393405,4.7553095Zm-15.0588836-17.4496395l5.5359091-14.1693014,5.8860198,14.1693014h-11.4219289Z"/>
      <path class="cls-1" d="m215.0392647,64.5886837h11.7202503c-3.2296319-1.1881233-4.5763544-5.0122596-5.6288531-7.7997128-1.0780543-2.7770539-9.5569827-23.0035307-10.4931388-25.8078829-.9489387-2.7642714-2.286119-2.7642714-3.3661326-2.7642714h-6.7153573c3.2328823,1.0598649,1.4747458,3.3163024.9467722,4.887251-.5544231,1.6017132-11.8355277,29.1075031-11.8355277,29.1075031-.7574177,1.7158892-1.8619131,1.7570532-2.5335363,2.3771131h9.6551263c-3.7649901-1.1881233-1.7349546-4.0897525-1.2154215-5.5326593.5182332-1.4875372,2.9536259-7.6888157,2.9536259-7.6888157h14.5382609s1.75402,4.488639,3.3565998,8.4661654c1.590014,3.984026.3871583,4.499226-1.3826681,4.7553095Zm-15.0226966-17.4496395l5.492353-14.1693014,5.9347666,14.1693014h-11.4271196Z"/>
      <path class="cls-1" d="m173.6796104,65.2772059c1.3477963-1.2143382,2.5632178-2.1325122,2.5632178-6.3683174v-25.0027728c0-1.9836719-.1035517-4.2305767-2.5632178-5.0493072h10.37138c-1.0693976.939406-2.3463484,2.1242794-2.3463484,4.7763248v25.2757551c0,2.2521333-.4907183,5.5664859,2.5103545,6.3683174h-10.5353861Z"/>
      <path class="cls-1" d="m118.0174227,36.682953s-.1321581,19.9725598-.1321581,22.2259355c0,2.2521333.2961642,5.5664859,3.2435071,6.3683174h-9.8288818c1.3551625-1.2143382,2.4332262-2.1325122,2.4332262-6.3683174,0-4.2218818.2517504-23.0342666.2517504-25.0027728,0-1.9836719-.2517504-4.2305767-2.6849766-5.0493072h7.5416795l22.5717419,27.9321624v-22.761313c0-1.4535228.2825225-4.2314433-2.8073853-5.2904416h10.0804155c-1.2145473.9383227-2.9852572,1.3170316-2.9852572,5.1688994v32.8311126s-2.7844201.5097837-7.3651076-4.9190989c-4.5793875-5.4163168-20.3185542-25.1351764-20.3185542-25.1351764Z"/>
      <path class="cls-1" d="m182.2590562,93.4262375c-29.5687566-24.5205327-40.8678434-53.3888513-.4337386-92.7988389,1.2576772-1.2113354,2.4700571-.4877154,1.4725882.6421585-17.7395208,19.9261962-37.4804789,51.8400013-.4127233,90.9306429.5840956.6252596.351194,1.8872614-.6261262,1.2260375Z"/>
    </g>
  </g>
</svg>